<?xml version="1.0" encoding="UTF-8" standalone="no"?>
<svg
   width="779.97302"
   zoomAndPan="magnify"
   viewBox="0 0 584.97977 358.90333"
   height="478.53778"
   preserveAspectRatio="xMidYMid"
   version="1.0"
   id="svg74"
   sodipodi:docname="RichmondDefensa_NoOutline.svg"
   inkscape:version="1.4.2 (ebf0e940d0, 2025-05-08)"
   xmlns:inkscape="http://www.inkscape.org/namespaces/inkscape"
   xmlns:sodipodi="http://sodipodi.sourceforge.net/DTD/sodipodi-0.dtd"
   xmlns="http://www.w3.org/2000/svg"
   xmlns:svg="http://www.w3.org/2000/svg">
  <sodipodi:namedview
     id="namedview74"
     pagecolor="#ffffff"
     bordercolor="#000000"
     borderopacity="0.25"
     inkscape:showpageshadow="2"
     inkscape:pageopacity="0.0"
     inkscape:pagecheckerboard="0"
     inkscape:deskcolor="#d1d1d1"
     inkscape:zoom="0.77037037"
     inkscape:cx="384.87981"
     inkscape:cy="242.74038"
     inkscape:window-width="1920"
     inkscape:window-height="1043"
     inkscape:window-x="0"
     inkscape:window-y="0"
     inkscape:window-maximized="1"
     inkscape:current-layer="svg74" />
  <defs
     id="defs6">
    <g
       id="g1" />
    <clipPath
       id="3b851cf97e">
      <rect
         x="0"
         width="188"
         y="0"
         height="411"
         id="rect1" />
    </clipPath>
    <clipPath
       id="9a5fced33b">
      <rect
         x="0"
         width="176"
         y="0"
         height="385"
         id="rect2" />
    </clipPath>
    <clipPath
       id="ccb6b95597">
      <rect
         x="0"
         width="178"
         y="0"
         height="390"
         id="rect3" />
    </clipPath>
    <clipPath
       id="b280ac26b8">
      <rect
         x="0"
         width="188"
         y="0"
         height="411"
         id="rect4" />
    </clipPath>
    <clipPath
       id="c522ec74d3">
      <rect
         x="0"
         width="176"
         y="0"
         height="385"
         id="rect5" />
    </clipPath>
    <clipPath
       id="b106edc69d">
      <rect
         x="0"
         width="178"
         y="0"
         height="389"
         id="rect6" />
    </clipPath>
  </defs>
  <g
     transform="translate(-30.293309,-73.530153)"
     id="g10">
    <g
       clip-path="url(#3b851cf97e)"
       id="g9">
      <g
         fill="#bb0e00"
         fill-opacity="1"
         id="g8">
        <g
           transform="translate(17.058934,315.29364)"
           id="g7">
          <g
             id="g6">
            <path
               d="M 43.578125,-1.5625 31.6875,-1.28125 27.40625,-1.0625 17.140625,-1.203125 l -3,-0.5 -0.765625,-1.953125 -0.140625,-2.984375 0.8125,-3.328125 0.15625,-3.3125 0.15625,-3.65625 -0.109375,-2.296875 0.546875,-2.03125 -0.109375,-2.3125 0.859375,-2.359375 -0.09375,-1.984375 0.203125,-2.328125 0.75,-4.65625 -0.109375,-2.3125 0.84375,-2.6875 -0.4375,-2.296875 0.859375,-2.671875 0.09375,-4.640625 0.53125,-2.6875 0.203125,-2.328125 -0.453125,-2.609375 1.1875,-2.71875 -0.25,-4.953125 1.34375,-6 -0.15625,-2.984375 0.5,-3.328125 0.07813,-4.96875 -0.140625,-2.640625 1.078125,-4.6875 0.234375,-2.3125 L 22,-94.40625 21.859375,-97.375 23.375,-99.765625 l 0.578125,-2.015625 -0.4375,-1.95313 0.125,-3.96875 0.546875,-2.35937 0.859375,-2.03125 -0.09375,-1.98438 0.546875,-2.32812 0.484375,-3.67188 0.21875,-2 0.4375,-4.3125 0.4375,-4.65624 -0.125,-2.65625 1.28125,-7 -0.109375,-2.3125 0.234375,-1.98438 0.21875,-2.34375 0.4375,-4.3125 0.21875,-1.98437 -0.109375,-2.3125 0.21875,-2 1.125,-4.04688 0.09375,-4.625 0.234375,-2 0.765625,-4.67187 0.71875,-5.3125 0.734375,-4.67188 0.234375,-2 -0.09375,-1.98437 0.109375,-4.3125 -0.109375,-1.98438 0.546875,-2.34375 0.78125,-4 0.734375,-5.32812 0.84375,-9.29688 0.203125,-2.67187 0.21875,-2.32813 -0.140625,-2.64062 1.1875,-2.70313 -0.515625,-3.60937 1.234375,-1.70313 2.1875,-2.78125 3.25,-0.8125 4.625,-0.23437 19.8125,-0.6875 14.1875,-0.71875 2.296875,-0.4375 3.28125,-0.5 2.671875,0.51562 4.984375,0.42188 2.96875,-0.15625 4.312505,0.45312 4.96875,0.0625 3.67187,0.48438 5.26563,-0.28125 2.67187,0.54687 3.73438,1.45313 3.03125,1.17187 2.32812,0.54688 3.07812,1.8125 2.03125,0.90625 1.70313,0.89062 4.07812,2.125 1.375,1.25 1.75,1.89063 1.42188,1.59375 2.51562,3.82812 2.54688,4.51563 1.25,5.21875 0.96875,6.23437 0.125,2.3125 1.3125,6.21875 0.14062,2.64063 -0.76562,4.67187 -0.21875,2.32813 0.57812,4.92187 0.125,2.3125 -0.71875,5.3125 -0.39062,5.34375 -0.82813,3.34375 -1.10937,4.01563 -0.5625,2.34375 -0.54688,2.01562 -0.875,2.375 -1.45312,4.03125 -2.73438,4.4375 -0.875,2.35938 -1.17187,3.04687 -2.4375,4.40625 -0.875,2.03125 -3.42188,4.48437 -1.5625,1.73438 -4.35937,5.17187 -6.39062,4.64063 -4.48438,2.54687 -2.29687,0.4375 0.14062,2.96875 1.125,2.59375 1.90625,4.875 0.15625,2.968755 0.875,4.234375 1.42188,1.921875 0.46875,2.625 0.85937,4.265625 1.09375,1.921875 1.20313,4.21875 0.75,1.953125 0.90625,4.578125 1.10937,2.265625 0.79687,2.625 1.53125,4.203125 0.10938,1.984375 1.90625,4.859375 0.875,4.265625 4.21875,11.6875 0.90625,4.578125 2.59375,5.515625 0.53125,3.9375 0.4375,2.28125 0.8125,2.9375 2.625,6.171875 -0.76563,4.328125 -1.64062,0.40625 -3.59375,0.84375 -4.28125,0.21875 -6.875,1.34375 -8.53125,1.4375 -4.29687,0.203125 -3.59375,0.515625 -2.65625,0.140625 -2.95313,0.484375 -2,-0.234375 -3.10937,-2.8125 -0.73438,-1.625 -1.203125,-3.90625 -0.734375,-1.609375 -1.1875,-3.59375 -2.21875,-4.828125 -0.140625,-2.640625 -1.125,-2.609375 -0.71875,-0.953125 -0.875,-4.265625 -1.109375,-2.234375 -0.125,-2.3125 -1.078125,-1.9375 -0.453125,-2.296875 -1.15625,-3.578125 -1.484375,-3.234375 -0.203125,-3.953125 -2.28125,-5.828125 -0.453125,-2.296875 -1.53125,-3.90625 -0.765625,-2.28125 -0.890625,-4.25 -1.53125,-4.21875 -0.5625,-4.609375 -0.75,-1.59375 -1.21875,-4.578125 L 75.125,-90.5 l -1.453125,-2.5625 -0.78125,-2.59375 -1.46875,-2.578125 -1.375,-1.265625 -2.328125,-0.203125 -0.265625,1.34375 -0.578125,2.015625 -0.75,4.65625 -0.1875,2.65625 -0.640625,7 0.28125,5.59375 -1.421875,4.375 -0.4375,4.640625 0.09375,1.984375 -0.421875,4.65625 -1.171875,2.71875 0.34375,6.921875 -0.515625,2.671875 -0.96875,6.984375 -0.203125,2.65625 -0.5625,2.015625 0.140625,2.640625 -0.75,4.65625 0.4375,1.96875 -0.5625,2.359375 0.109375,1.984375 -0.125,4.296875 -0.203125,2.328125 0.09375,1.984375 -0.203125,2.328125 -0.125,3.96875 -0.890625,2.359375 -0.828125,3.015625 -3.296875,-0.15625 -2.96875,0.484375 -4.9375,0.578125 z m 36,-138.10937 5.265625,-0.26563 3.921875,-1.1875 1.90625,-1.4375 3.203125,-2.125 2.234375,-1.4375 2.171875,-2.76562 1.234375,-2.0625 2.203125,-2.07813 1.42188,-4.375 0.54687,-2.67187 0.21875,-2 2.07813,-4.73438 -0.125,-2.625 0.82812,-2.71875 0.0625,-5.29687 -0.70312,-7.23438 -1.3125,-6.875 -1.8125,-2.875 -2.42188,-2.20312 -3.0625,-1.5 -7.296875,-0.625 -7.953125,0.0781 -2.90625,1.14063 -0.8125,3.67187 -0.875,2.375 -0.375,5.3125 -0.07813,4.96875 -0.125,4.29688 -0.53125,2.67187 -0.71875,5.32813 0.125,2.29687 -0.421875,4.98438 -0.828125,3.04687 0.46875,2.95313 -0.5,2.98437 -0.734375,5.34375 -0.203125,2.32813 0.4375,2.29687 -0.1875,2.64063 z m 0,0"
               id="path6" />
          </g>
        </g>
      </g>
    </g>
  </g>
  <g
     transform="translate(-18.293309,-60.530153)"
     id="g15">
    <g
       clip-path="url(#9a5fced33b)"
       id="g14">
      <g
         fill="#121212"
         fill-opacity="1"
         id="g13">
        <g
           transform="translate(15.910485,295.38155)"
           id="g12">
          <g
             id="g11">
            <path
               d="m 40.84375,-1.453125 -11.140625,0.25 -4.03125,0.21875 L 16.0625,-1.125 13.25,-1.59375 12.53125,-3.421875 12.390625,-6.21875 l 0.78125,-3.125 0.140625,-3.109375 0.140625,-3.421875 -0.109375,-2.15625 0.53125,-1.875 -0.109375,-2.171875 0.8125,-2.21875 -0.09375,-1.859375 0.1875,-2.171875 0.71875,-4.375 -0.109375,-2.15625 0.796875,-2.53125 -0.421875,-2.140625 0.796875,-2.53125 0.07813,-4.328125 0.5,-2.515625 0.203125,-2.171875 -0.4375,-2.46875 1.109375,-2.515625 -0.234375,-4.65625 1.265625,-5.640625 -0.140625,-2.765625 0.46875,-3.140625 0.07813,-4.65625 -0.125,-2.453125 1,-4.40625 0.203125,-2.171875 0.1875,-2.5 -0.140625,-2.78125 1.4375,-2.25 0.515625,-1.875 -0.390625,-1.84375 0.109375,-3.718755 0.515625,-2.21875 0.828125,-1.89062 -0.09375,-1.85938 0.515625,-2.1875 0.453125,-3.4375 0.1875,-1.875 0.421875,-4.04687 0.40625,-4.35938 -0.125,-2.46875 1.21875,-6.56249 -0.109375,-2.17188 0.21875,-1.875 0.171875,-2.1875 0.421875,-4.03125 0.21875,-1.875 -0.109375,-2.17187 0.21875,-1.875 1.046875,-3.76563 0.09375,-4.34375 0.21875,-1.875 0.703125,-4.375 0.671875,-4.98437 0.71875,-4.375 0.21875,-1.875 -0.09375,-1.85938 0.09375,-4.03125 -0.09375,-1.84375 0.515625,-2.20312 0.734375,-3.76563 0.65625,-4.98437 0.796875,-8.70313 0.1875,-2.5 0.203125,-2.1875 -0.125,-2.46875 1.109375,-2.54687 -0.484375,-3.375 1.15625,-1.60938 2.046875,-2.57812 3.0625,-0.78125 4.328125,-0.21875 18.5625,-0.625 13.296875,-0.6875 2.140625,-0.42188 3.078125,-0.46875 2.5,0.5 4.6875,0.39063 2.765625,-0.14063 4.046875,0.40625 4.67188,0.0781 3.42187,0.45312 4.9375,-0.25 2.51563,0.48438 3.48437,1.375 2.82813,1.09375 2.20312,0.5 2.875,1.71875 1.90625,0.82812 1.59375,0.84375 3.8125,1.98438 1.29687,1.17187 1.64063,1.78125 1.3125,1.48438 2.35937,3.59375 2.39063,4.21875 1.1875,4.89062 0.90625,5.84375 0.10937,2.17188 1.21875,5.8125 0.125,2.48437 -0.70312,4.375 -0.20313,2.1875 0.54688,4.60938 0.10937,2.17187 -0.67187,5 -0.35938,4.96875 -0.78125,3.14063 -1.04687,3.78125 -0.51563,2.17187 -0.51562,1.89063 -0.8125,2.21875 -1.35938,3.79687 -2.57812,4.14063 -0.8125,2.21875 -1.10938,2.84375 -2.25,4.15624 -0.84375,1.90625 -3.20312,4.1875 -1.46875,1.625 -4.07812,4.85938 -5.98438,4.32812 -4.21875,2.375 -2.14062,0.42188 0.14062,2.79687 1.04688,2.42188 1.76562,4.546875 0.14063,2.796875 0.82812,3.984375 1.34375,1.796875 0.4375,2.4375 0.82813,4 1.01562,1.8125 1.125,3.96875 0.71875,1.8125 0.84375,4.3125 1.03125,2.109375 0.75,2.453125 1.4375,3.9375 0.0937,1.859375 1.78125,4.5625 0.8125,4 3.96875,10.953125 0.82812,4.28125 2.45313,5.15625 0.5,3.6875 0.42187,2.15625 0.75,2.75 2.46875,5.75 -0.73437,4.078125 -1.53125,0.390625 -3.375,0.78125 -4,0.203125 -6.45312,1.265625 -7.98438,1.328125 -4.03125,0.203125 -3.39062,0.484375 -2.45313,0.125 -2.765625,0.453125 -1.875,-0.21875 -2.9375,-2.640625 -0.6875,-1.515625 -1.125,-3.65625 -0.6875,-1.515625 -1.109375,-3.359375 -2.078125,-4.546875 -0.125,-2.46875 -1.046875,-2.421875 -0.671875,-0.90625 -0.828125,-3.984375 -1.046875,-2.125 L 84.625,-36.234375 83.609375,-38.03125 83.1875,-40.1875 82.09375,-43.546875 80.6875,-46.5625 80.5,-50.28125 l -2.140625,-5.453125 -0.40625,-2.171875 -1.4375,-3.625 -0.71875,-2.140625 -0.828125,-3.984375 -1.421875,-3.953125 -0.53125,-4.3125 -0.6875,-1.515625 -1.15625,-4.28125 -0.78125,-3.046875 -1.375,-2.421875 -0.734375,-2.4375 -1.375,-2.421875 -1.296875,-1.171875 -2.1875,-0.203125 -0.234375,1.25 -0.53125,1.890625 -0.6875,4.375 -0.171875,2.5 -0.609375,6.53125 0.265625,5.265625 -1.34375,4.078125 -0.390625,4.375 0.09375,1.859375 -0.40625,4.34375 -1.109375,2.53125 0.328125,6.5 -0.5,2.515625 -0.90625,6.546875 -0.1875,2.484375 -0.53125,1.890625 0.125,2.46875 -0.6875,4.375 0.40625,1.84375 -0.515625,2.203125 0.09375,1.859375 -0.109375,4.015625 -0.1875,2.1875 0.09375,1.859375 -0.203125,2.171875 -0.125,3.71875 -0.8125,2.21875 -0.78125,2.828125 -3.109375,-0.15625 -2.765625,0.453125 -4.625,0.546875 z M 74.546875,-130.85937 79.5,-131.125 l 3.671875,-1.10937 1.78125,-1.32813 3,-2.01562 2.109375,-1.34375 2.03125,-2.59375 1.140625,-1.92188 2.046875,-1.96875 1.34375,-4.07812 0.5,-2.51563 0.21875,-1.85937 1.953125,-4.4375 -0.125,-2.46875 0.796875,-2.53125 0.0625,-4.96875 -0.65625,-6.78125 -1.25,-6.45313 -1.6875,-2.6875 -2.28125,-2.0625 -2.84375,-1.40625 -6.859375,-0.57812 -7.4375,0.0625 -2.734375,1.07812 -0.75,3.4375 -0.828125,2.21875 -0.375,4.98438 -0.0625,4.64062 -0.109375,4.04688 -0.5,2.5 -0.671875,5 0.109375,2.17187 -0.390625,4.65625 -0.765625,2.82813 0.453125,2.78125 -0.484375,2.8125 -0.65625,4.98437 -0.203125,2.1875 0.421875,2.14063 -0.1875,2.5 z m 0,0"
               id="path10" />
          </g>
        </g>
      </g>
    </g>
  </g>
  <g
     transform="translate(-10.293309,-72.530153)"
     id="g20">
    <g
       clip-path="url(#ccb6b95597)"
       id="g19">
      <g
         fill="#bb0e00"
         fill-opacity="1"
         id="g18">
        <g
           transform="translate(16.181824,299.66866)"
           id="g17">
          <g
             id="g16">
            <path
               d="m 41.375,-1.46875 -11.28125,0.25 -4.078125,0.203125 -9.734375,-0.125 -2.859375,-0.484375 -0.71875,-1.859375 -0.140625,-2.8125 0.765625,-3.171875 0.15625,-3.15625 0.140625,-3.453125 -0.109375,-2.203125 0.53125,-1.890625 L 13.9375,-22.375 14.765625,-24.609375 14.65625,-26.5 14.875,-28.703125 15.59375,-33.125 15.484375,-35.3125 16.28125,-37.875 15.875,-40.046875 16.671875,-42.609375 16.75,-47 l 0.5,-2.546875 0.203125,-2.203125 -0.4375,-2.5 1.140625,-2.546875 -0.25,-4.703125 1.28125,-5.71875 -0.140625,-2.8125 0.46875,-3.171875 0.0625,-4.71875 -0.125,-2.484375 1.03125,-4.453125 0.203125,-2.21875 0.203125,-2.53125 -0.140625,-2.8125 1.4375,-2.265625 0.53125,-1.921875 -0.40625,-1.859375 0.125,-3.78125 0.515625,-2.20313 0.84375,-1.9375 -0.09375,-1.875 0.5,-2.23437 0.453125,-3.46875 0.21875,-1.89063 0.421875,-4.10937 0.40625,-4.42188 -0.125,-2.5 1.21875,-6.65624 -0.109375,-2.1875 0.21875,-1.90625 0.203125,-2.20313 0.421875,-4.09375 0.21875,-1.89062 -0.109375,-2.20313 0.21875,-1.89062 1.0625,-3.8125 0.09375,-4.40625 0.21875,-1.89063 0.703125,-4.42187 0.6875,-5.0625 0.734375,-4.4375 0.21875,-1.90625 -0.109375,-1.85938 0.109375,-4.09375 -0.09375,-1.875 0.515625,-2.23437 0.734375,-3.8125 0.671875,-5.0625 0.828125,-8.82813 0.1875,-2.51562 0.203125,-2.21875 -0.125,-2.5 1.109375,-2.5625 -0.484375,-3.4375 1.171875,-1.625 2.078125,-2.60938 3.09375,-0.79687 4.375,-0.21875 18.8125,-0.65625 13.46875,-0.67188 2.171875,-0.42187 3.125,-0.48438 2.53125,0.5 4.734375,0.40625 2.8125,-0.14062 4.109375,0.40625 4.718755,0.0781 3.45312,0.45313 5.01563,-0.25 2.54687,0.5 3.51563,1.375 2.875,1.125 2.23437,0.51562 2.90625,1.73438 1.9375,0.82812 1.59375,0.875 3.89062,1.98438 1.3125,1.1875 1.67188,1.8125 1.32812,1.5 2.375,3.64062 2.40625,4.28125 1.20313,4.96875 0.92187,5.90625 0.10938,2.20313 1.25,5.90625 0.125,2.5 -0.71875,4.4375 -0.20313,2.20312 0.54688,4.67188 0.125,2.20312 -0.6875,5.0625 -0.375,5.03125 -0.76563,3.17188 -1.07812,3.82812 -0.5,2.23438 -0.53125,1.89062 -0.82813,2.25 -1.375,3.82813 -2.625,4.21875 -0.82812,2.25 -1.10938,2.875 -2.28125,4.20312 -0.84375,1.9375 -3.24999,4.23437 -1.48438,1.64063 -4.14062,4.92187 -6.0625,4.40625 -4.28125,2.39063 -2.17188,0.42187 0.14063,2.82813 1.0625,2.45312 1.8125,4.60938 0.14062,2.828125 0.84375,4.046875 1.34375,1.8125 0.4375,2.5 0.84375,4.03125 1.03125,1.828125 1.14063,4.03125 0.73437,1.859375 0.84375,4.328125 1.04688,2.15625 0.76562,2.46875 1.45313,3.984375 0.0937,1.890625 1.79687,4.625 0.82813,4.046875 4.03124,11.09375 0.84375,4.34375 2.46875,5.21875 0.5,3.75 0.42188,2.171875 0.76562,2.78125 2.51563,5.84375 -0.73438,4.109375 -1.5625,0.390625 -3.40625,0.8125 -4.07812,0.203125 -6.53125,1.28125 -8.07812,1.34375 -4.07813,0.203125 -3.4375,0.5 -2.51562,0.125 -2.78125,0.453125 L 98.328125,-5 95.375,-7.6875 l -0.703125,-1.53125 -1.140625,-3.703125 -0.71875,-1.53125 -1.109375,-3.40625 -2.109375,-4.59375 -0.125,-2.484375 -1.0625,-2.46875 -0.671875,-0.90625 -0.84375,-4.046875 -1.046875,-2.15625 -0.109375,-2.171875 -1.03125,-1.828125 -0.421875,-2.1875 -1.125,-3.40625 -1.421875,-3.046875 -0.1875,-3.765625 -2.15625,-5.546875 L 78.96875,-58.640625 77.5,-62.34375 76.765625,-64.5 75.9375,-68.546875 l -1.4375,-4 -0.53125,-4.375 -0.703125,-1.53125 -1.171875,-4.328125 -0.796875,-3.109375 -1.375,-2.421875 -0.75,-2.484375 -1.375,-2.4375 -1.328125,-1.1875 -2.203125,-0.203125 -0.25,1.25 -0.53125,1.921875 -0.71875,4.4375 L 62.5625,-84.5 l -0.578125,6.625 0.265625,5.328125 -1.359375,4.140625 -0.40625,4.421875 0.09375,1.875 -0.390625,4.421875 -1.140625,2.5625 0.328125,6.578125 -0.5,2.546875 -0.90625,6.625 -0.1875,2.53125 -0.53125,1.90625 0.125,2.5 -0.703125,4.453125 0.40625,1.84375 -0.515625,2.234375 0.09375,1.890625 -0.125,4.078125 -0.203125,2.203125 0.09375,1.890625 -0.203125,2.203125 -0.109375,3.765625 -0.828125,2.234375 -0.796875,2.875 -3.140625,-0.15625 -2.796875,0.453125 -4.6875,0.546875 z m 34.140625,-131.09375 5.015625,-0.25 3.703125,-1.125 1.8125,-1.35937 3.046875,-2.04688 2.125,-1.35937 2.078125,-2.625 1.15625,-1.9375 2.09375,-1.96875 1.34375,-4.15625 0.5,-2.54688 0.21875,-1.89062 1.984375,-4.5 -0.125,-2.51563 0.8125,-2.54687 0.0469,-5.01563 -0.65625,-6.89062 -1.281255,-6.51563 -1.71875,-2.73437 -2.296875,-2.07813 -2.890625,-1.4375 -6.9375,-0.59375 -7.53125,0.0781 -2.78125,1.07812 -0.765625,3.5 -0.828125,2.23438 -0.359375,5.04687 -0.07813,4.71875 -0.109375,4.07813 -0.5,2.53125 -0.6875,5.0625 0.109375,2.20312 -0.390625,4.71875 -0.796875,2.85938 0.453125,2.8125 -0.453125,2.84375 -0.6875,5.04687 -0.203125,2.21875 0.421875,2.17188 -0.1875,2.53125 z m 0,0"
               id="path15" />
          </g>
        </g>
      </g>
    </g>
  </g>
  <g
     fill="#bb0e00"
     fill-opacity="1"
     id="g23"
     transform="translate(-116.29331,-222.53015)">
    <g
       transform="translate(263.777,340.84904)"
       id="g22">
      <g
         id="g21">
        <path
           d="m 19.484375,-0.703125 -1,-0.09375 -4.078125,0.203125 -1.984375,-0.171875 -1.125,0.046875 -1,0.1875 L 8.75,-0.578125 l -1,-0.09375 -1.125,0.1875 L 5.5,-0.703125 4.296875,-1.625 4.0625,-3.75 4.671875,-5.765625 4.703125,-7.890625 4.9375,-8.875 l 0.1875,-2 0.078125,-1.140625 L 5.5,-14.15625 l 0.09375,-1 0.21875,-1.140625 0.09375,-1 0.46875,-1.84375 -0.1875,-0.84375 0.3125,-2.5625 0.34375,-1.578125 0.21875,-1.28125 0.359375,-1.296875 0.203125,-1.28125 0.203125,-1.71875 -0.046875,-0.96875 0.234375,-1 0.09375,-0.875 0.234375,-1 -0.203125,-0.96875 0.84375,-3.15625 0.171875,-2.140625 -0.03125,-0.84375 0.21875,-1.015625 0.09375,-1 0.09375,-0.828125 0.1875,-2 -0.109375,-1.984375 0.46875,-2 -0.04687,-1 0.171875,-1.984375 0.515625,-1.171875 -0.09375,-1.8125 0.203125,-1.71875 0.328125,-1.84375 0.609375,-2.015625 0.265625,-3 -0.09375,-1.984375 0.375,-0.984375 0.171875,-2 0.09375,-0.84375 -0.1875,-0.984375 0.484375,-1.734375 0.109375,-0.84375 0.328125,-1.875 0.09375,-0.984375 0.46875,-1.875 -0.1875,-0.953125 0.07813,-1.140625 0.04687,-1.84375 0.234375,-0.71875 0.171875,-2 0.328125,-1.875 0.09375,-0.84375 0.25,-0.859375 0.04687,-1.703125 0.21875,-1.546875 0.484375,-1.59375 0.171875,-2.125 0.234375,-0.875 0.09375,-0.984375 0.921875,-1.46875 0.96875,-0.484375 0.8125,-0.609375 0.984375,-0.1875 2.109375,-0.250005 1.28125,0.0781 1.96875,-0.0937 0.96875,-0.1875 7.5,-0.39063 0.984375,-0.1875 1.578125,0.34375 0.640625,1.39063 -0.09375,0.859375 0.09375,1.84375 -0.265625,0.421875 -0.0625,1.5625 0.1875,0.828125 -0.390625,0.609375 0.0625,1.25 -0.40625,0.71875 -0.171875,2 -0.5,1.296875 0.04687,1.140625 -0.09375,0.84375 0.04687,0.984375 -0.09375,0.875 -0.515625,3.703125 -0.203125,1.546875 -0.234375,0.875 -0.203125,1.703125 -0.07813,1 -0.0625,1.703125 -0.109375,1 -0.1875,1.84375 -0.328125,1.734375 -0.328125,1.828125 -0.109375,0.71875 -0.3125,2 -0.359375,1.296875 0.0625,1.265625 -0.09375,1 -0.07813,1.140625 0.04687,0.984375 -0.1875,1.859375 -0.375,1.40625 -0.484375,4.296875 -0.453125,2 -0.375,1.015625 0.0625,1.125 -0.328125,1.859375 -0.1875,1.828125 -0.203125,1.71875 -0.484375,2 0.0625,1.140625 -0.453125,2 0.04687,1.140625 -0.171875,1.984375 -0.09375,0.71875 0.09375,1.953125 -0.625,1.453125 0.21875,1.546875 -0.3125,2.140625 -0.07813,1.140625 -0.484375,1.875 0.04687,1.125 -0.3125,1.984375 -0.1875,2 -0.1875,1.84375 0.04687,1 -0.34375,1.5625 -0.390625,3.421875 -0.328125,1.859375 -0.171875,1.984375 -0.34375,1.859375 -0.09375,1.140625 -0.34375,1.296875 -1.53125,0.5 z m 0,0"
           id="path20" />
      </g>
    </g>
  </g>
  <g
     fill="#bb0e00"
     fill-opacity="1"
     id="g26"
     transform="translate(-116.29331,-222.53015)">
    <g
       transform="translate(289.7514,339.52856)"
       id="g25">
      <g
         id="g24">
        <path
           d="M 31,0.125 29.734375,0.0625 28.75,0.109375 27.75,0 26.1875,-0.0625 25.046875,-0.140625 24.1875,-0.25 22.78125,-0.3125 21.765625,-0.546875 20.90625,-0.640625 19.03125,-1.25 17.328125,-1.734375 16.4375,-2.40625 14.984375,-3.171875 14.25,-3.703125 13.390625,-4.21875 11.46875,-5.546875 10.875,-6.21875 10.109375,-6.875 9.03125,-8.8125 7.671875,-10.578125 7.15625,-12.390625 6.8125,-13.21875 6.4375,-15.046875 6.109375,-16.015625 5.96875,-18.6875 l -0.1875,-1.125 -0.078125,-1.28125 0.09375,-0.984375 -0.1875,-3.671875 v -2.984375 L 5.6875,-29.875 l 0.046875,-1.96875 0.1875,-2 -0.046875,-0.984375 0.09375,-0.859375 0.140625,-2.984375 0.453125,-2 -0.203125,-1.28125 0.21875,-1.109375 0.34375,-1.59375 -0.171875,-0.6875 0.296875,-2.578125 0.515625,-0.875 -0.109375,-1.984375 0.125,-0.421875 -0.03125,-0.5625 0.359375,-1.578125 0.203125,-1.546875 0.359375,-1.453125 0.046875,-1.6875 L 8.46875,-58.875 8.859375,-59.765625 8.75,-61.734375 9.3125,-64.59375 9.546875,-65.609375 9.75,-67.15625 l 0.0625,-1.421875 0.390625,-0.875 0.09375,-0.984375 0.234375,-1.015625 0.09375,-0.84375 0.09375,-1 0.375,-1 0.328125,-1.875 0.84375,-2.859375 0.703125,-2.875 0.46875,-2 0.703125,-2.4375 0.625,-1.734375 0.75,-2.03125 L 16,-91.671875 16.9375,-92.5625 17.875,-94.046875 18.921875,-95.5 l 1.890625,-2.09375 0.796875,-0.734375 1.796875,-0.953125 0.828125,-0.46875 2.890625,-1.42188 2.390625,-0.54687 1.796875,-0.5 0.984375,-0.20313 2.125,-0.10937 2.671875,-0.28125 2.265625,-0.125 3.546875,0.26562 1.28125,0.35938 1.421875,-0.0781 2,0.1875 0.859375,0.0937 0.984375,0.23438 0.984375,0.0937 0.59375,0.39062 1.5625,0.20313 2.03125,0.60937 1.890625,1.312505 1.640625,1.328125 0.3125,0.703125 0.765625,1.234375 0.46875,0.6875 0.34375,0.984375 0.765625,1.34375 0.359375,1.546875 0.234375,1.6875 0.234375,1.84375 0.203125,1.25 0.234375,2.125 0.15625,3.09375 -0.04687,1.40625 -0.234375,1.15625 -0.171875,2.140625 -0.15625,2.265625 -0.59375,5.546875 -0.21875,1.15625 -0.515625,3.703125 -0.53125,0.59375 -1.703125,0.21875 -1.953125,0.25 -8.90625,0.296875 -4.125,-0.34375 L 42,-64.5625 l -0.09375,-1.96875 0.234375,-1.015625 0.4375,-2.5625 0.171875,-1.984375 0.703125,-3.140625 0.04687,-1.859375 0.1875,-2 -0.109375,-2.09375 -0.984375,-2.5 L 41,-84.453125 38.984375,-84.9375 l -1.53125,0.09375 -1.6875,0.375 -1.515625,0.640625 -1.203125,1.609375 -0.390625,0.890625 -0.359375,1 -0.453125,2.421875 -0.609375,1.859375 L 30.5,-73.59375 30.546875,-72.75 30.0625,-71.015625 29.75,-68.875 l -0.328125,1.6875 -0.359375,1.3125 -0.09375,0.984375 -0.09375,0.859375 -0.234375,1.015625 -0.1875,1.984375 -0.59375,2.15625 -0.828125,5.703125 -0.07813,1.125 L 26.5,-49.75 l -0.09375,0.984375 -0.203125,1.859375 -0.21875,1.140625 -0.3125,2.15625 0.140625,2.953125 -0.359375,1 -0.09375,1 0.04687,1.125 -0.07813,1 -0.234375,1.015625 0.1875,0.96875 -0.265625,3 0.04687,1.109375 -0.3125,2 -0.04687,1.984375 0.07813,1.40625 0.1875,0.84375 0.04687,1 0.671875,2.078125 1.171875,0.953125 2.15625,0.59375 2.234375,-0.40625 2.109375,-0.109375 1.921875,-1.375 0.53125,-0.734375 1.015625,-2.609375 0.59375,-2 0.46875,-1.875 0.09375,-0.84375 0.109375,-0.71875 0.34375,-1.71875 0.3125,-2.125 0.234375,-1.28125 0.07813,-1 0.609375,-1.875 0.21875,-1.4375 0.90625,-1.171875 1.140625,-0.203125 3.671875,-0.04687 2.96875,-0.140625 6.9375,0.0625 1.703125,0.0625 1.03125,0.9375 0.609375,0.96875 0.07813,1.546875 -0.234375,0.859375 0.04687,0.984375 -0.1875,1.859375 -0.0625,1.546875 -0.234375,0.71875 -0.09375,1 -0.109375,0.578125 -0.28125,2.984375 -0.234375,0.859375 -0.671875,3.578125 -0.34375,1.71875 L 56.4375,-20 l -0.21875,1 -0.390625,0.875 -0.71875,2.3125 -0.640625,1.71875 -0.375,1.015625 -0.5,0.875 -0.65625,0.875 -0.375,0.875 -0.234375,0.875 -2,2.640625 -2.03125,1.921875 L 46.09375,-3.46875 45.140625,-3 l -3.625,1.03125 -1.671875,0.5 -1.671875,0.375 -1.828125,0.515625 -2.125,0.109375 -1.8125,0.234375 z m 0,0"
           id="path23" />
      </g>
    </g>
  </g>
  <g
     fill="#bb0e00"
     fill-opacity="1"
     id="g29"
     transform="translate(-116.29331,-222.53015)">
    <g
       transform="translate(340.14808,336.96652)"
       id="g28">
      <g
         id="g27">
        <path
           d="M 48.015625,-2.15625 46.875,-2.390625 43.046875,-2.1875 41.515625,-2.25 l -1,0.046875 -1,-0.09375 -0.90625,-1.234375 0.07813,-1.125 0.07813,-1.28125 0.21875,-1.296875 0.515625,-1 -0.109375,-1.984375 0.421875,-2.984375 0.09375,-1 -0.0625,-0.984375 0.109375,-1 0.04687,-1.84375 0.25,-0.734375 0.03125,-1.953125 0.3125,-2.140625 0.15625,-2.703125 0.609375,-4.28125 0.484375,-1.59375 0.21875,-1.40625 -0.07813,-1.703125 0.3125,-1.984375 0.234375,-1.015625 0.1875,-1.984375 -0.04687,-1 0.1875,-1.703125 -1.265625,0.203125 -1,0.04687 -1.25,-0.21875 -4.515625,0.65625 -2.125,-0.3125 -2.421875,-0.01563 -0.109375,0.703125 -0.07813,1.140625 -0.46875,2.015625 -0.203125,1.84375 -0.5,1.015625 0.125,2.40625 -0.234375,1 -0.53125,3.28125 -0.6875,3.140625 0.1875,0.84375 -0.625,1.734375 -0.109375,0.71875 -0.46875,1.859375 -0.171875,2.109375 -0.640625,4.015625 -0.09375,1.140625 -0.3125,2 0.04687,0.984375 -0.1875,2 -0.234375,1.125 -0.09375,0.984375 -0.171875,2.140625 -0.625,1.453125 -1.09375,0.625 -1.28125,0.203125 -1.671875,0.234375 -2.109375,0.390625 -1.125,0.046875 -1.015625,-0.359375 -0.96875,0.1875 L 13.84375,-0.5625 12.140625,-0.75 7.625,-0.53125 4.796875,-0.671875 l -0.65625,-1.53125 -0.0625,-1.125 L 4.59375,-4.625 5.203125,-6.484375 5.265625,-7.90625 5.484375,-9.1875 5.4375,-10.171875 l 0.21875,-0.875 -0.3125,-0.96875 0.75,-1.59375 L 6.328125,-14.625 6.125,-15.734375 6.578125,-17.75 6.34375,-19.703125 l 0.53125,-1.03125 0.5,-1.296875 0.078125,-1 -0.046875,-1.125 0.3125,-2 0.234375,-1.140625 0.453125,-4.984375 0.234375,-0.859375 0.09375,-0.84375 0.234375,-1.15625 -0.1875,-0.96875 L 9.25,-38.125 l 0.046875,-1.84375 0.34375,-1.4375 0.203125,-1.6875 -0.046875,-0.984375 0.171875,-2.140625 0.359375,-1.015625 0.375,-1.15625 -0.0625,-1.125 0.484375,-2.015625 0.484375,-4.109375 0.109375,-0.859375 0.171875,-1.984375 0.04687,-2 0.734375,-2.015625 0.09375,-1 0.04687,-1.984375 0.421875,-2.984375 0.1875,-1.84375 0.21875,-1.140625 0.28125,-2.984375 0.09375,-0.734375 -0.09375,-1.96875 0.484375,-1.171875 0.09375,-1.109375 0.09375,-0.859375 0.328125,-1.859375 -0.15625,-2.96875 L 15.671875,-87 15.4375,-88.96875 l 0.234375,-1.015625 0.07813,-0.984375 0.375,-1 -0.1875,-1.125 0.21875,-1 0.328125,-1.859375 0.0625,-1.703125 0.0625,-1.5625 1.234375,-0.765625 3.53125,-0.187505 5.78125,-0.4375 1.96875,0.0469 3.109375,-0.15625 1.40625,-0.5 1.703125,0.20312 1.4375,0.20313 0.34375,1.265625 0.04687,0.84375 0.171875,0.984375 -0.3125,1.71875 -0.109375,0.859375 -0.03125,1.984375 -0.359375,1.265625 -0.07813,1.296875 -0.4375,2.703125 -0.1875,2 -0.04687,1.703125 -0.375,1 0.109375,2.265625 -0.234375,0.984375 -0.21875,1.140625 -0.04687,1.859375 -0.25,0.71875 -0.04687,1.703125 0.04687,0.84375 -0.25,0.71875 -0.21875,1.15625 -0.09375,0.984375 -0.390625,0.875 0.1875,0.984375 -0.328125,1.84375 -0.234375,1.015625 0.1875,0.828125 -0.234375,1.140625 -0.09375,0.875 -0.21875,1.125 0.984375,0.09375 1.140625,-0.04687 4.09375,-0.07813 1.109375,-0.1875 1.71875,0.04687 1.10937,-0.20314 h 2.984375 l 0.109375,-0.71875 0.203125,-1.578125 0.5,-1.296875 -0.04687,-0.984375 0.09375,-1 0.59375,-2.140625 -0.328125,-0.828125 0.609375,-1.875 0.109375,-0.859375 0.07813,-1 0.09375,-1.125 0.07813,-1 0.25,-0.859375 L 48.5,-78.75 l 0.34375,-1.875 0.04687,-1.828125 0.5,-1.296875 -0.07813,-1.703125 -0.203125,-1.125 0.09375,-0.984375 0.46875,-2.015625 -0.0625,-1.125 0.3125,-1.859375 0.234375,-0.84375 0.1875,-1.859375 L 50.4375,-96.125 50.953125,-97.40625 51.1875,-98.421875 51,-99.40625 l 0.09375,-0.84375 1.0625,-1.34375 0.828125,-0.1875 1.28125,-0.20313 5.078125,-0.25 2.8125,-0.0156 3.96875,-0.1875 2.265625,0.15625 1.03125,0.375 1.046875,1.23437 -0.09375,0.843755 0.1875,0.984375 -0.515625,0.890625 0.171875,0.546875 -0.109375,0.859375 0.04687,0.984375 -0.46875,1.703125 -0.04687,2 0.0625,1.125 -0.09375,0.984375 -0.21875,1.015625 -0.25,1.140625 -0.04687,1.859375 0.04687,0.984375 -0.1875,1.859375 -0.07813,0.984375 -0.328125,1.84375 -0.09375,1 -0.234375,1 -0.07813,1.140625 -0.1875,1.84375 -0.109375,0.875 -0.609375,1.71875 -0.109375,0.84375 -0.1875,1.859375 -0.171875,2.265625 -0.03125,2.125 L 66.125,-63.375 66.09375,-61.25 66,-60.390625 l -0.328125,2 -0.07813,0.984375 -0.53125,0.875 0.0625,1.140625 0.328125,0.96875 -0.375,0.859375 -0.109375,1 0.09375,1.828125 -0.09375,1.015625 -0.609375,1.859375 -0.07813,1.015625 -0.421875,2.546875 0.04687,0.859375 -0.203125,1.546875 -0.328125,2.015625 -0.234375,1 0.1875,0.828125 -0.703125,3.015625 0.171875,0.859375 -0.21875,0.984375 -0.25,0.84375 -0.07813,1.015625 -0.328125,1.984375 0.0625,1.140625 -0.09375,1 -0.328125,2 -0.34375,1.5625 -0.234375,0.859375 -0.03125,1.984375 -0.03125,2.265625 -0.34375,2.015625 -0.07813,0.984375 -0.1875,1.84375 -0.234375,1.015625 -0.0625,1.546875 -0.203125,1.71875 -0.375,0.71875 -0.09375,1.125 -0.21875,1.015625 0.04687,1.125 -0.234375,1.015625 -0.53125,0.875 -1.65625,0.5 -2.125,0.109375 -0.828125,0.1875 L 51.953125,-2.5 49.125,-2.359375 Z m 0,0"
           id="path26" />
      </g>
    </g>
  </g>
  <g
     fill="#bb0e00"
     fill-opacity="1"
     id="g32"
     transform="translate(-116.29331,-222.53015)">
    <g
       transform="translate(400.0031,333.92363)"
       id="g31">
      <g
         id="g30">
        <path
           d="M 16.390625,-0.546875 12.5625,-0.640625 8.75,-0.4375 6.765625,-0.484375 6.171875,-0.875 5.4375,-1.6875 l -0.046875,-1 0.03125,-2.125 0.109375,-0.859375 -0.359375,-1.234375 0.359375,-1.296875 0.078125,-1 0.046875,-1.84375 L 6,-12.625 l 0.203125,-1.703125 0.21875,-1 0.34375,-2.015625 0.078125,-1.109375 -0.046875,-0.984375 0.375,-1.03125 0.078125,-1.125 0.046875,-2 0.3125,-1.984375 0.234375,-1.15625 0.078125,-1.125 0.09375,-0.859375 L 8.0625,-30.6875 8.296875,-31.546875 8.46875,-33.6875 8.5,-35.96875 l 0.46875,-2.140625 -0.0625,-1.125 0.1875,-2 0.5625,-2.84375 -0.078125,-1.28125 0.109375,-0.84375 0.328125,-1.71875 -0.1875,-0.84375 0.359375,-1.28125 0.234375,-1.15625 0.1875,-1.703125 0.0625,-1.71875 -0.0625,-0.96875 0.265625,-0.875 0.07813,-0.984375 0.1875,-1.859375 0.109375,-0.84375 0.359375,-1.015625 0.34375,-1.71875 0.04687,-1.84375 0.1875,-1.859375 0.234375,-0.828125 0.1875,-2 0.09375,-0.859375 0.1875,-2 0.09375,-1.125 0.328125,-1.875 0.234375,-1 0.234375,-0.84375 -0.04687,-1 0.09375,-0.859375 0.609375,-4.265625 -0.04687,-0.859375 0.0625,-1.828125 0.1875,-1.71875 0.34375,-1.5625 0.109375,-1.015625 0.328125,-1.828125 -0.203125,-1.140625 0.234375,-1 0.0625,-1.5625 0.5,-1.296875 -0.0625,-0.984375 0.765625,-1.75 L 18.125,-100 l 1.96875,-0.10938 2.6875,-0.26562 2.390625,0.0156 2.40625,-0.125 2.546875,-0.26562 2.828125,-0.0156 1.828125,-0.0937 0.9375,1.250005 0.625,3.921875 0.328125,0.96875 0.375,1.984375 0.1875,0.8125 0.5,1.96875 L 38,-87.5625 l 0.53125,2.234375 0.375,1.828125 0.25,1.96875 0.328125,0.984375 0.0625,1.109375 0.71875,2.9375 0.1875,0.84375 0.390625,1.953125 0.04687,1 0.1875,0.984375 0.46875,0.8125 0.234375,1.84375 0.04687,0.828125 0.234375,1.84375 0.515625,1.9375 0.04687,1 0.53125,1.953125 0.8125,4.78125 0.671875,1.9375 0.03125,0.84375 0.203125,0.984375 0.04687,1 0.328125,0.828125 0.359375,1.8125 0.703125,2.65625 0.421875,-0.01563 1.671875,-3.625 0.375,-0.734375 0.53125,-0.875 1.015625,-2.3125 0.375,-1.015625 0.875,-2.015625 0.765625,-1.46875 0.9375,-1.3125 -0.04687,-0.84375 0.875,-2.171875 0.78125,-1.3125 0.515625,-1.453125 0.890625,-1.890625 0.796875,-0.890625 0.46875,-1.6875 1.1875,-1.921875 0.53125,-0.859375 0.09375,-0.875 1.296875,-2.171875 2.53125,-5.796875 0.53125,-0.859375 1.765625,-4.078125 0.75,-1.875 1.046875,-2.03125 0.90625,-1.625 0.75,-1.703125 0.53125,-0.875 0.390625,-0.75 0.25,-0.5625 L 70.21875,-97.125 70.75,-98 l 0.609375,-1.734375 0.9375,-1.453125 0.625,-1.46875 3.359375,-0.45313 3.390625,-0.0312 2.265625,-0.25 4.8125,0.0312 2.796875,-0.28125 1.328125,0.78125 0.328125,0.98438 -0.328125,1.85937 -0.234375,0.875005 -0.03125,1.96875 -0.125,0.5625 -0.07813,1.015625 -0.109375,0.828125 -0.07813,1 -0.140625,0.4375 0.09375,1.96875 L 89.9375,-90.5 l -0.09375,1.015625 -0.609375,1.859375 0.0625,1.140625 -0.328125,1.984375 -0.234375,0.875 -0.04687,1.6875 0.1875,0.84375 -0.515625,1.015625 0.125,2.40625 -0.390625,0.859375 -0.625,1.890625 -0.09375,0.84375 -0.1875,2 -0.01563,2.25 -0.484375,1.15625 -0.07813,1.28125 0.03125,0.84375 -0.07813,1 -0.25,0.859375 -0.328125,1.875 -0.171875,1.984375 -0.359375,1.71875 -0.09375,0.828125 -0.09375,1 -0.328125,1.71875 -0.0625,1.578125 -0.03125,2.109375 -0.515625,1.03125 0.04687,0.984375 0.1875,0.984375 -0.09375,0.84375 -0.09375,1 -0.09375,0.84375 -0.328125,1.859375 -0.671875,1.03125 0.5,1.09375 -0.1875,2.140625 -0.328125,2.015625 0.04687,0.84375 -0.1875,1.84375 -0.59375,2.140625 -0.09375,1 -0.3125,2.140625 -0.09375,1 -0.07813,1.125 -0.1875,2 -0.25,0.859375 -0.1875,2 -0.07813,1.125 -0.328125,1.859375 -0.09375,1 -0.234375,0.84375 -0.04687,1.859375 -0.09375,0.984375 0.04687,1 -0.328125,1.859375 -0.07813,1.140625 -0.3125,1.984375 -0.328125,1.859375 -0.21875,1.84375 -0.34375,1.296875 -1.9375,0.671875 -1.5625,0.078125 -4.234375,0.078125 -6.203125,0.3125 -1.984375,0.234375 -0.703125,-0.109375 -1,0.0625 L 60.25,-3.765625 59.890625,-5.3125 59.6875,-6.296875 l 0.109375,-0.84375 0.3125,-2 0.09375,-0.984375 0.171875,-2.140625 0.21875,-1.140625 0.1875,-2 0.1875,-2.140625 0.328125,-1.984375 0.46875,-1.859375 0.04687,-1.84375 0.46875,-1.71875 0.328125,-1.875 -0.09375,-1.984375 0.1875,-1.828125 0.375,-1.015625 0.0625,-1.703125 0.09375,-0.84375 0.09375,-1 0.34375,-1.578125 0.09375,-0.984375 -0.04687,-0.859375 0.234375,-1 0.828125,-5.578125 0.296875,-2.546875 0.328125,-1.984375 0.109375,-0.875 0.21875,-1 L 66.125,-55.03125 65.703125,-55 l -3.8125,8.5625 -2.875,7.34375 -1.609375,4.328125 -2.828125,5.9375 -3.375,8.53125 -0.90625,1.75 -0.625,1.4375 L 48.125,-16.75 47.28125,-16.703125 46,-16.921875 l -3.09375,0.4375 -2.703125,-0.28125 -1.28125,-0.07813 L 37.1875,-17.609375 37,-18.59375 l -0.84375,-2.34375 -0.203125,-1.125 -0.328125,-0.96875 -0.203125,-1.125 -0.1875,-0.984375 L 34.90625,-26.125 34.5,-28.515625 34.078125,-31.46875 33.75,-32.28125 33.21875,-34.234375 32.84375,-36.0625 31.6875,-41.953125 31.25,-44.890625 30.875,-47 30.671875,-47.96875 30.5,-48.828125 l -0.90625,-6.46875 -0.5625,0.03125 -0.421875,5.828125 0.09375,1.703125 -0.453125,2.28125 -0.28125,5.25 -0.09375,0.984375 -0.234375,0.875 0.140625,2.6875 -0.09375,0.984375 -0.1875,1.859375 -0.09375,0.859375 -0.234375,0.984375 -0.203125,2 -0.1875,1.703125 0.04687,1 -0.03125,1.96875 -0.1875,2 0.04687,0.84375 -0.484375,1.734375 -0.07813,1.109375 -0.07813,1.296875 -0.171875,2.265625 -0.171875,2 -0.09375,0.84375 -0.34375,1.71875 0.09375,1.84375 -0.04687,1.828125 -0.390625,1 -0.09375,0.875 -0.0625,1.40625 -0.765625,1.609375 -1.671875,0.78125 -4.23436,0.21875 L 17.375,-0.75 Z m 0,0"
           id="path29" />
      </g>
    </g>
  </g>
  <g
     fill="#bb0e00"
     fill-opacity="1"
     id="g35"
     transform="translate(-116.29331,-222.53015)">
    <g
       transform="translate(480.04532,329.85448)"
       id="g34">
      <g
         id="g33">
        <path
           d="m 34.265625,0.53125 -3.6875,-0.234375 -1.8125,0.234375 -1,-0.09375 L 26.5,0.359375 23.1875,-0.46875 22.046875,-0.5625 19.90625,-1.015625 18.875,-1.53125 16.859375,-2.703125 14.203125,-4.6875 l -2.09375,-2.140625 -0.453125,-0.6875 -0.75,-0.6875 -0.46875,-0.8125 L 9.671875,-9.96875 8.453125,-11.75 8.421875,-12.59375 7.9375,-13.5625 7.765625,-14.421875 7.4375,-15.109375 7.109375,-15.9375 6.921875,-16.90625 6.578125,-17.75 6.34375,-19.703125 l -0.1875,-0.84375 -0.5625,-2.8125 0.234375,-1 -0.140625,-2.6875 0.359375,-1.421875 -0.203125,-1.140625 -0.046875,-0.96875 0.140625,-3.125 0.453125,-2.015625 -0.046875,-1.125 0.171875,-2 -0.046875,-0.984375 0.453125,-2 -0.3125,-0.6875 0.1875,-1.84375 0.234375,-1 0.296875,-2.578125 0.328125,-1.703125 -0.09375,-1.84375 0.359375,-1.71875 -0.0625,-0.984375 0.390625,-0.859375 0.234375,-1 -0.046875,-0.859375 0.234375,-1 -0.1875,-0.828125 0.765625,-1.46875 0.234375,-1 -0.09375,-1.984375 0.1875,-1.703125 0.375,-1.015625 0.09375,-0.859375 L 10.25,-68.75 l 0.375,-3.546875 0.65625,-1.03125 0.1875,-1.859375 0.75,-1.859375 0.375,-1.03125 0.484375,-1.703125 0.609375,-2.015625 0.734375,-1.734375 0.515625,-1.015625 1.1875,-1.90625 0.09375,-1 0.515625,-0.875 1.03125,-1.90625 1.0625,-1.71875 0.9375,-0.75 0.671875,-0.90625 1.875,-2.203125 1.78125,-1.375 1.09375,-0.484375 0.9375,-0.75 1.65625,-1.09375 1.640625,-0.921875 2.09375,-0.67188 0.84375,-0.1875 2.09375,-0.67187 1.40625,-0.20313 2.5,-0.54687 1.984375,-0.26563 1.6875,-0.21875 h 2.5625 l 0.84375,0.125 1.546875,0.0625 2.265625,0.15625 1.15625,0.375 1.140625,0.0781 0.859375,0.23437 2.171875,0.875 2.640625,1.57813 1.15625,0.640625 0.75,0.8125 1.625,1.203125 1.609375,1.328125 0.75,0.828125 0.484375,0.953125 0.9375,1.765625 0.453125,0.84375 0.328125,0.828125 0.328125,0.96875 0.53125,2.109375 0.4375,2.671875 0.203125,1.109375 0.04687,1 -0.04687,1.828125 -0.109375,0.859375 0.234375,1.828125 0.0625,1 -0.0625,1.828125 -0.234375,1 -0.09375,0.875 0.1875,0.96875 0.0625,1.421875 -0.09375,0.859375 -0.171875,1.96875 -0.03125,2.125 -0.03125,2.28125 -0.234375,0.984375 -0.171875,2.28125 0.21875,1.40625 -0.625,1.578125 0.234375,1.703125 -0.46875,1.859375 -0.1875,1.859375 -0.359375,1.84375 -0.04687,1.703125 -0.328125,1.875 -0.375,0.859375 -0.28125,2.5625 0.0625,1.265625 -0.234375,0.984375 -0.171875,2 -0.375,0.875 -1.171875,5 0.171875,0.84375 -0.609375,1.734375 -0.375,0.875 -0.0625,1.5625 -0.625,1.578125 -0.359375,1.734375 0.04687,0.984375 -0.328125,1.578125 -0.65625,1.015625 -0.07813,1.40625 -0.875,2.03125 -1.015625,2.609375 -0.65625,1.015625 -1.171875,1.90625 -0.53125,0.875 -0.65625,0.875 -0.234375,0.875 -1.59375,1.765625 -0.828125,0.734375 -0.65625,0.90625 -1.640625,1.34375 -1.625,1.234375 -0.546875,0.453125 -3.1875,1.421875 -0.984375,0.1875 -1.09375,0.34375 -1.96875,0.515625 -0.96875,0.203125 -1.546875,0.515625 z m -2.09375,-19.15625 1.84375,-0.09375 1.9375,-0.671875 1.25,-0.609375 1.90625,-1.5 L 40,-23.546875 l 0.75,-2.015625 0.21875,-1 -0.0625,-1.140625 0.3125,-2.140625 0.234375,-1.015625 0.171875,-1.96875 0.390625,-1.15625 0.03125,-1.96875 0.375,-1.03125 0.328125,-1.84375 0.07813,-1.15625 0.390625,-0.859375 -0.0625,-1.125 L 43,-42.390625 l 0.34375,-1.296875 0.328125,-2.109375 0.109375,-3.28125 0.375,-1.296875 0.359375,-1.140625 0.140625,-2.703125 0.390625,-0.875 -0.265625,-2.375 0.453125,-2.15625 0.1875,-1.71875 0.234375,-1.125 0.234375,-1 -0.203125,-1 0.04687,-1.828125 0.234375,-1.15625 0.328125,-1.984375 0.21875,-1.296875 -0.09375,-1.828125 0.15625,-2.5625 0.04687,-1.84375 0.1875,-1.984375 -0.71875,-2.78125 -0.609375,-0.828125 -1.0625,-1.21875 -2.3125,-0.875 -2.65625,0.28125 -1.125,0.34375 -2.21875,0.953125 -1.34375,1.34375 -0.890625,1.609375 -0.5,1.71875 -0.515625,1.015625 -0.75,1.859375 -0.234375,1.015625 -0.21875,1.140625 -0.703125,3.015625 0.01563,0.28125 -0.09375,1.140625 -0.3125,1.984375 -0.09375,0.859375 -0.46875,2 -0.328125,2 -0.296875,2.296875 -0.09375,0.984375 -0.234375,1 -0.171875,2.125 -0.375,1.15625 -0.453125,2.28125 -0.234375,1 -0.15625,2 0.04687,0.984375 -0.09375,1.015625 0.203125,1.109375 -0.375,1.015625 -0.59375,2 0.1875,1.125 -0.234375,1 0.171875,0.5625 -0.21875,1.28125 0.0625,1.140625 -0.25,1 0.0625,1.140625 -0.3125,2.125 0.04687,1 -0.375,1 0.46875,0.953125 -0.04687,1.71875 -0.484375,1.421875 0.46875,0.984375 0.203125,3.953125 0.46875,0.96875 0.3125,0.546875 0.921875,1.234375 0.734375,0.65625 1.125,0.359375 1.15625,0.21875 z m 0,0"
           id="path32" />
      </g>
    </g>
  </g>
  <g
     fill="#bb0e00"
     fill-opacity="1"
     id="g38"
     transform="translate(-116.29331,-222.53015)">
    <g
       transform="translate(537.35928,326.94077)"
       id="g37">
      <g
         id="g36">
        <path
           d="m 7.203125,-0.078125 -2.109375,-0.1875 -0.8125,-1.65625 0.25,-1.140625 -0.125,-2.265625 0.171875,-2.25 0.46875,-2.015625 0.078125,-0.984375 0.3125,-2.015625 0.25,-0.71875 0.3125,-2 0.21875,-1.28125 0.3125,-2.265625 L 6.484375,-19.84375 6.71875,-21 6.625,-22.828125 7.140625,-23.859375 7.1875,-25.5625 l 0.09375,-1 0.34375,-1.703125 0.09375,-0.875 -0.1875,-0.96875 0.1875,-1.828125 0.4375,-2.296875 0.203125,-1.71875 0.21875,-1.28125 L 8.9375,-38.8125 9.125,-40.515625 9.21875,-41.53125 9.453125,-42.390625 9.5,-44.21875 l 0.09375,-0.859375 -0.03125,-0.84375 0.609375,-1.734375 0.09375,-0.84375 0.09375,-1 0.04687,-1.984375 0.0625,-1.421875 0.640625,-1.734375 0.21875,-1.125 0.203125,-1.4375 -0.09375,-1.96875 0.07813,-1.140625 0.375,-1.15625 -0.0625,-1.140625 0.375,-1 -0.0625,-0.984375 0.234375,-1.015625 0.1875,-1.828125 0.34375,-1.578125 0.375,-1.296875 -0.07813,-1.703125 L 13.28125,-73 l 0.25,-0.859375 0.5,-4 -0.0625,-0.984375 0.484375,-1.28125 0.21875,-1.296875 0.04687,-1.84375 0.09375,-1 0.09375,-0.84375 0.09375,-1 0.25,-0.875 0.09375,-0.984375 0.1875,-1.859375 0.203125,-1.6875 0.328125,-1.875 -0.0625,-1.125 0.328125,-1.859375 0.234375,-0.859375 0.390625,-0.71875 0.78125,-1.609375 1.390625,-0.359375 1.96875,-0.234375 2.40625,0.0156 1.28125,-0.0625 1.8125,-0.23437 h 2.6875 l 1.6875,-0.21875 2.140625,0.0312 1.96875,-0.0937 1.578125,0.34375 0.890625,1.234375 0.203125,0.96875 0.625,1.390625 0.375,1.6875 0.234375,1.546875 0.65625,1.921875 0.734375,3.359375 0.546875,2.25 0.53125,2.390625 0.53125,1.953125 0.71875,2.78125 0.34375,1.109375 0.1875,0.984375 0.390625,2.109375 0.515625,1.828125 0.04687,0.84375 0.5,1.515625 0.04687,1 0.21875,1.53125 0.53125,2.109375 0.40625,2.390625 0.53125,2.359375 0.265625,2.265625 0.390625,1.96875 0.34375,1.09375 0.609375,3.8125 0.734375,3.21875 0.4375,3.09375 0.04687,0.96875 0.328125,0.96875 0.375,1.6875 0.609375,3.796875 0.59375,3.078125 0.421875,-0.01563 v -2.84375 l 0.109375,-3.40625 -0.09375,-1.984375 0.07813,-6.78125 0.25,-2.984375 -0.25,-4.78125 0.32814,-2.0156 0.09375,-0.84375 0.09375,-1.015625 0.07813,-1.125 0.04687,-1.984375 0.25,-0.859375 0.1875,-2 -0.04687,-0.84375 0.46875,-1.859375 -0.09375,-1.6875 0.0625,-1.71875 -0.04687,-0.984375 0.75,-1.734375 -0.1875,-0.984375 0.296875,-2.5625 -0.04687,-0.84375 0.328125,-1.859375 0.09375,-0.984375 0.25,-0.859375 0.1875,-2 0.07813,-1.125 0.328125,-2.015625 0.21875,-1 0.375,-1.15625 -0.0625,-1.265625 0.09375,-0.84375 0.296875,-2.28125 0.421875,-3 1.03125,-2.03125 0.546875,-0.45313 2.65625,-0.70312 2.96875,0.125 0.984375,-0.1875 1.421875,-0.0625 3.25,-0.0312 1.40625,-0.0781 1.984375,-0.23437 1.984375,0.3125 0.859375,0.39062 0.203125,1.125 0.0625,1.125 -0.328125,2.01563 0.203125,1.109375 -0.265625,3.125 -0.1875,1.984375 -0.6875,3.4375 -0.34375,1.578125 -0.265625,2.5625 -0.234375,1.15625 -0.265625,2.96875 -0.453125,2.28125 -0.171875,2.28125 -0.359375,1.296875 -0.234375,1.140625 -0.21875,1 0.09375,1.84375 -0.234375,0.984375 -0.34375,4.28125 -0.359375,1.28125 -0.0625,1.578125 -0.09375,0.984375 -0.21875,1.140625 -0.34375,1.875 -0.234375,0.984375 -0.328125,1.859375 -0.1875,1.984375 -0.21875,1.15625 0.203125,1.25 -0.234375,0.875 -0.09375,1 -0.234375,0.859375 -0.09375,0.984375 -0.09375,0.875 0.09375,1.8125 -0.375,0.875 -0.34375,1.984375 -0.21875,1.296875 -0.07813,1.28125 -0.09375,0.84375 -0.09375,1.015625 -0.09375,0.84375 0.04687,0.84375 -0.46875,2 -0.171875,2 -0.21875,1.421875 -0.5,1.3125 -0.484375,1.703125 -0.0625,1.578125 -0.04687,1.828125 -0.1875,1.859375 -0.375,1.140625 -0.4375,2 0.109375,2.265625 -0.609375,1.875 0.04687,0.859375 -0.234375,1 -0.34375,1.84375 -0.46875,4.546875 -1.1875,1.765625 -1.359375,1.0625 -1.96875,0.234375 -1.546875,0.375 -0.5625,0.015625 h -2.671875 l -0.984375,0.1875 -1.421875,-0.0625 -0.84375,0.1875 L 48,-2.4375 46.15625,-2.484375 43.765625,-2.359375 42.5625,-3.296875 41.34375,-5.5 40.546875,-7.453125 40.359375,-8.125 40.125,-9.828125 39.9375,-10.65625 39.5,-13.609375 l -0.171875,-0.84375 -0.71875,-2.9375 -0.1875,-0.84375 -0.375,-1.953125 -0.25,-2.109375 -0.5,-1.53125 -0.53125,-2.109375 -0.04687,-0.84375 -0.515625,-1.953125 -0.20313,-0.84375 -0.515625,-1.953125 -0.1875,-0.828125 -0.109375,-2.125 -0.703125,-2.796875 -0.421875,-2.671875 -0.765625,-3.921875 -0.9375,-4.484375 -0.625,-3.9375 -1.109375,-5.03125 -1.109375,-5.3125 -0.421875,0.01563 0.04687,3.96875 0.01563,2.828125 -0.0625,1.546875 -0.1875,2.421875 0.04687,3.53125 -0.64062,6.82812 -0.265625,5.546875 -0.234375,0.859375 -0.328125,1.84375 0.328125,0.984375 -0.34375,1.703125 -0.21875,1.015625 0.1875,0.96875 -0.09375,0.859375 -0.203125,2 -0.453125,2.15625 -0.421875,2.84375 -0.1875,1.96875 -0.09375,0.875 -0.234375,1 -0.34375,4.109375 -0.328125,1.875 -0.109375,0.984375 0.09375,1.84375 -0.234375,0.84375 -0.296875,2.578125 -0.484375,1.703125 -0.34375,1.453125 -1.53125,0.640625 z m 0,0"
           id="path35" />
      </g>
    </g>
  </g>
  <g
     fill="#bb0e00"
     fill-opacity="1"
     id="g41"
     transform="translate(-116.29331,-222.53015)">
    <g
       transform="translate(602.29637,323.63953)"
       id="g40">
      <g
         id="g39">
        <path
           d="M 29.953125,-1.234375 26.6875,-1.21875 24.84375,-1.265625 23.015625,-1.03125 20.890625,-1.203125 19.1875,-0.96875 18.0625,-1.0625 16.8125,-1 l -2,-0.171875 -0.859375,-0.09375 L 12.8125,-1.21875 11.84375,-1.03125 7.609375,-0.8125 5.625,-0.984375 4.484375,-1.21875 4.3125,-4.46875 4.390625,-5.75 l 0.625,-1.703125 0.171875,-2 0.09375,-0.859375 0.3125,-2 0.203125,-1.421875 0.234375,-1.15625 -0.0625,-1.125 0.1875,-2 0.078125,-1.109375 0.203125,-1.578125 0.515625,-1.15625 0.21875,-1.4375 -0.0625,-1.125 0.3125,-2 0.234375,-1.140625 0.046875,-1.859375 0.09375,-0.84375 0.515625,-1 -0.15625,-3.109375 0.3125,-2.015625 0.09375,-1.125 0.328125,-2 0.09375,-1 0.1875,-1.859375 0.234375,-0.984375 0.328125,-1.71875 0.109375,-0.84375 0.46875,-1.734375 -0.140625,-2.828125 0.234375,-1 0.234375,-0.859375 0.328125,-2.015625 0.25,-0.828125 0.5,-4 0.375,-1.015625 0.21875,-1 0.09375,-1 -0.04687,-0.859375 0.09375,-0.984375 0.203125,-1.71875 L 12.75,-66.75 13.078125,-68.46875 13.03125,-69.3125 13.25,-71.015625 13.71875,-72.75 13.625,-74.734375 l 0.07813,-1.125 0.125,-2.984375 0.1875,-1.703125 0.578125,-2.5625 0.21875,-1.015625 -0.03125,-0.84375 0.09375,-0.984375 0.34375,-1.875 0.171875,-2 0.203125,-1.6875 0.375,-0.859375 0.09375,-1.015625 0.04687,-1.6875 0.234375,-1.015625 0.34375,-1.421875 0.265625,-0.4375 0.34375,-1.59375 1.390625,-0.484375 0.984375,-0.0469 1.71875,0.0469 0.984375,0.09375 2.25,-0.39063 1.109375,-0.0625 3.125,-0.0156 2.8125,-0.28125 3.53125,-0.1875 1.578125,0.0625 0.8125,-0.1875 2.265625,-0.10938 1.140625,0.0781 1.28125,0.0781 2.125,0.17188 1,-0.0469 1.15625,0.35938 2.015625,0.484375 0.28125,-0.01563 0.828125,0.23437 2.453125,0.578125 0.71875,0.390625 0.578125,0.25 1.46875,0.78125 1.015625,0.671875 0.875,0.65625 2.28125,2.71875 1.21875,1.609375 0.59375,0.6875 0.78125,1.234375 0.640625,1.953125 0.953125,2.0625 0.625,0.984375 0.546875,2.375 0.04687,0.984375 0.8125,1.9375 -0.09375,0.984375 0.421875,2.8125 0.234375,1.828125 -0.375,0.875 0.51563,1.95318 0.1875,0.859375 -0.09375,0.96875 0.328125,0.96875 -0.07813,1.015625 0.03125,0.84375 -0.296875,2.28125 0.04687,0.984375 -0.15625,2.421875 -0.09375,0.984375 0.203125,3.9375 -0.59375,2.3125 0.04687,1 -0.4375,2.6875 -0.171875,2.140625 -0.125,3.25 -0.21875,1.15625 -0.359375,1.15625 -0.0625,1.40625 -0.6875,3.015625 -0.04687,1.84375 -0.1875,1.71875 -0.390625,1.015625 -0.890625,1.875 -0.25,0.859375 -0.0625,1.546875 -0.75,1.890625 -0.09375,0.84375 -0.46875,2.015625 -0.890625,2.03125 -0.84375,2.875 -0.625,1.4375 -1.078125,1.1875 -0.109375,0.859375 -0.640625,1.015625 -0.671875,0.890625 -0.90625,1.75 -1.828125,2.5 -1.90625,1.640625 -1.21875,1.1875 -0.828125,0.625 L 47,-5.5 45.453125,-5 l -1.359375,1.046875 -1.953125,0.6875 -1.375,0.34375 -2.25,0.40625 -1.53125,0.640625 -4.375,0.21875 -0.984375,0.1875 -0.71875,0.03125 z m -1.546875,-19.171875 4.21875,-0.203125 1.40625,-0.5 1.09375,-0.640625 1.515625,-0.921875 0.6875,-0.59375 1.0625,-1.1875 0.921875,-1.1875 0.40625,-0.859375 0.5,-1.015625 0.5,-1.453125 0.609375,-1.4375 0.609375,-1.875 L 42.65625,-35 43,-36.578125 l 0.328125,-2 0.46875,-1.875 0.09375,-0.84375 0.25,-0.71875 L 44.375,-42.875 44.734375,-44.59375 44.8125,-45.578125 45,-47.4375 l 0.1875,-2 0.171875,-2.125 0.09375,-1 0.21875,-1.140625 0.609375,-2.015625 -0.109375,-1.953125 0.28125,-3 0.09375,-0.859375 0.140625,-2.984375 -0.28125,-2.96875 L 46.328125,-71.5625 45.84375,-75.359375 45.640625,-76.5 44.6875,-78.84375 43.609375,-80.625 l -0.890625,-0.65625 -0.75,-0.53125 -2.421875,-0.59375 -2.265625,-0.171875 -1.84375,-0.04687 -1.265625,0.21875 -0.359375,1.15625 -0.390625,1 0.04687,0.828125 -0.234375,1.015625 -0.3125,2.140625 -0.46875,2 -0.1875,1.859375 -0.171875,1.984375 -0.125,3.109375 -0.09375,0.859375 -0.234375,1.015625 0.04687,0.984375 -0.07813,1.140625 -0.390625,0.859375 0.03125,0.84375 -0.3125,2.015625 -0.171875,2.265625 0.04687,1 -0.3125,1.96875 -0.25,0.875 -0.3125,1.984375 0.04687,0.859375 -0.328125,2 -0.234375,1.015625 0.1875,0.828125 -0.234375,1 -0.390625,3.703125 0.09375,1.828125 -0.09375,0.84375 -0.609375,2.03125 0.04687,0.84375 -0.296875,2.140625 -0.4375,2.578125 -0.09375,0.96875 -0.46875,2.015625 -0.171875,2.140625 -0.03125,2.125 -0.3125,2.421875 -0.203125,1.296875 z m 0,0"
           id="path38" />
      </g>
    </g>
  </g>
  <g
     transform="translate(109.70669,45.469847)"
     id="g46">
    <g
       clip-path="url(#b280ac26b8)"
       id="g45">
      <g
         fill="#bb0e00"
         fill-opacity="1"
         id="g44">
        <g
           transform="translate(16.40014,315.32412)"
           id="g43">
          <g
             id="g42">
            <path
               d="M 69.984375,-2.90625 62.375,-2.84375 58.0625,-2.953125 53.796875,-2.40625 48.8125,-2.8125 44.875,-2.28125 42.203125,-2.46875 39.25,-2.328125 34.59375,-2.75 l -2,-0.234375 -2.625,0.125 -2.296875,0.46875 -9.890625,0.5 -4.65625,-0.4375 -2.6875,-0.515625 -0.375,-7.578125 0.171875,-3 1.4375,-4.046875 0.4375,-4.640625 0.234375,-2 0.75,-4.671875 0.5,-3.328125 0.515625,-2.6875 -0.125,-2.640625 0.421875,-4.65625 0.1875,-2.640625 0.484375,-3.671875 1.171875,-2.703125 0.484375,-3.328125 -0.125,-2.625 L 17.375,-61.75 17.890625,-64.4375 18,-68.734375 l 0.25,-1.984375 1.1875,-2.375 -0.375,-7.265625 0.765625,-4.671875 0.203125,-2.65625 0.75,-4.671875 0.203125,-2.328125 0.453125,-4.328125 0.546875,-2.343755 0.78125,-3.98437 0.21875,-2 1.140625,-4.04688 -0.34375,-6.59375 0.53125,-2.34375 0.5625,-2.01562 0.75,-4.67188 0.5625,-1.99999 1.1875,-9.34375 0.859375,-2.34375 0.5625,-2.34375 L 29,-145.375 l -0.09375,-1.98437 0.203125,-2.32813 0.453125,-3.96875 0.21875,-2.32812 0.796875,-4.03125 L 30.46875,-162 l 0.46875,-3.98437 1.125,-4.01563 -0.234375,-4.625 0.1875,-2.64062 0.3125,-6.96875 0.4375,-4 1.34375,-6.03125 0.546875,-2.34375 -0.109375,-1.98438 0.234375,-2.3125 0.765625,-4.34375 0.421875,-4.65625 0.46875,-3.98437 0.890625,-2.03125 0.203125,-2.32813 0.125,-3.98437 0.5625,-2.34375 0.8125,-3.32813 0.609375,-1.03125 0.8125,-3.6875 3.234375,-1.15625 2.3125,-0.125 3.984375,0.125 2.328125,0.21875 5.234375,-0.92187 2.640625,-0.14063 7.28125,-0.0469 6.578125,-0.65625 8.25,-0.42188 3.65625,0.14063 1.953125,-0.42188 5.28125,-0.26562 2.65625,0.1875 2.984375,0.17187 4.968755,0.42188 2.3125,-0.10938 2.70312,0.84375 4.6875,1.09375 0.65625,-0.0312 2.01563,0.5625 5.6875,1.35938 1.70312,0.90625 1.34375,0.60937 3.40625,1.78125 2.39062,1.53125 2.0625,1.5625 5.29688,6.35938 2.82812,3.79687 1.40625,1.59375 1.79688,2.89063 1.5625,4.53125 2.23437,4.875 1.4375,2.25 1.28125,5.53125 0.10938,2.3125 1.89062,4.54687 -0.21875,2.32813 1,6.5625 0.54688,4.28125 -0.89063,2.03125 1.23438,4.5625 0.40625,1.96875 -0.1875,2.32812 0.75,2.28125 -0.20313,2.3125 0.0937,1.96875 -0.70312,5.34375 0.125,2.3125 -0.39063,5.625 -0.20312,2.32813 0.46875,9.23437 -1.39063,5.39062 0.10938,2.3125 -0.98438,6.3125 -0.40625,4.98438 -0.28125,7.625 -0.53125,2.67187 -0.84375,2.70313 -0.1875,3.3125 -1.60937,7.03125 -0.125,4.28125 -0.45313,4 -0.875,2.375 -2.07812,4.40625 -0.5625,2 -0.14063,3.65625 -1.78125,4.390625 -0.21875,2 L 141,-57.125 l -2.07813,4.75 -1.98437,6.703125 -1.46875,3.390625 -2.5,2.78125 -0.23438,2 -1.53125,2.375 -1.5625,2.0625 -2.10937,4.078125 -4.32812,5.84375 -4.4375,3.859375 -2.82813,2.796875 -1.92187,1.4375 -4.1875,2.1875 -3.5625,1.171875 -3.20313,2.46875 -4.546875,1.5625 -3.25,0.828125 -5.25,0.921875 -3.5625,1.515625 L 76.21875,-3.875 73.921875,-3.421875 72.28125,-3.34375 Z M 66.375,-47.6875 l 9.890625,-0.5 3.265625,-1.171875 2.578125,-1.453125 3.515625,-2.171875 1.59375,-1.40625 2.484375,-2.78125 2.1875,-2.734375 0.890625,-2.03125 1.203125,-2.390625 1.15625,-3.359375 1.484375,-3.390625 1.421875,-4.375 1.65625,-6.359375 0.812505,-3.671875 0.75,-4.671875 1.10937,-4.375 0.23438,-1.984375 0.5625,-1.671875 0.5625,-2.01563 0.79687,-4.01562 0.21875,-2.32813 0.4375,-4.32812 0.4375,-4.65625 0.39063,-4.96875 0.21875,-2.32813 0.51562,-2.67187 1.40625,-4.70312 -0.23437,-4.60938 0.64062,-7 0.23438,-2 0.3125,-6.95312 -0.6875,-6.90625 -0.15625,-9.59375 -1.10938,-8.875 -0.46875,-2.625 -2.25,-5.5 -2.53125,-4.1875 -2.0625,-1.53125 -1.71875,-1.25 -5.703125,-1.35938 -5.3125,-0.375 -4.3125,-0.125 -2.9375,0.48438 -0.84375,2.67187 -0.890625,2.375 0.109375,1.98438 -0.546875,2.34375 -0.75,4.98437 -1.078125,4.6875 -0.4375,4.32813 -0.4375,4.65625 -0.28125,7.29687 -0.234375,2 -0.53125,2.32813 0.109375,2.3125 -0.203125,2.65625 -0.890625,2.03125 0.109375,1.98437 -0.75,4.65625 -0.40625,5.32813 0.125,2.3125 -0.734375,4.65624 -0.5625,2.01563 -0.765625,4.67187 0.109375,1.98438 -0.75,4.65625 -0.5625,2.35937 0.453125,1.95313 -0.5625,2.35937 -0.875,8.64063 0.21875,4.296875 -0.234375,1.96875 -1.421875,4.703125 0.109375,1.984375 -0.75,5 -1.015625,6.015625 -0.203125,2.328125 -1.09375,4.671875 L 63,-62.421875 l -0.07813,4.953125 -0.71875,5.6875 -0.5,3 z m 0,0"
               id="path41" />
          </g>
        </g>
      </g>
    </g>
  </g>
  <g
     transform="translate(119.70669,58.469847)"
     id="g51">
    <g
       clip-path="url(#c522ec74d3)"
       id="g50">
      <g
         fill="#121212"
         fill-opacity="1"
         id="g49">
        <g
           transform="translate(15.612809,295.40358)"
           id="g48">
          <g
             id="g47">
            <path
               d="m 65.578125,-2.703125 -7.140625,0.046875 -4.03125,-0.109375 -4,0.515625 -4.671875,-0.390625 -3.6875,0.5 -2.484375,-0.1875 -2.78125,0.140625 -4.375,-0.390625 -1.875,-0.21875 -2.453125,0.125 -2.15625,0.4375 -9.265625,0.46875 -4.375,-0.40625 -2.5,-0.5 -0.359375,-7.09375 0.171875,-2.8125 1.359375,-3.78125 0.390625,-4.359375 0.21875,-1.875 0.71875,-4.375 0.4375,-3.125 0.5,-2.5 -0.125,-2.46875 0.40625,-4.359375 0.171875,-2.5 L 14.125,-45.34375 15.234375,-47.875 15.6875,-51 l -0.125,-2.484375 0.703125,-4.359375 0.5,-2.515625 0.109375,-4.03125 0.21875,-1.875 1.125,-2.21875 -0.34375,-6.8125 0.703125,-4.359375 0.1875,-2.484375 0.6875,-4.390625 0.203125,-2.1875 0.421875,-4.03125 0.515625,-2.203125 0.734375,-3.75 0.21875,-1.890625 1.046875,-3.76563 -0.3125,-6.1875 0.515625,-2.20312 0.515625,-1.89063 0.71875,-4.35937 0.5,-1.89063 1.109375,-8.73437 0.828125,-2.20312 0.5,-2.20313 0.1875,-2.1875 -0.09375,-1.85937 0.203125,-2.15625 0.4375,-3.75 0.1875,-2.1875 0.75,-3.75 -0.09375,-1.85938 0.4375,-3.73437 1.046875,-3.78125 -0.21875,-4.32813 0.1875,-2.48437 0.28125,-6.53125 0.4375,-3.73438 1.265625,-5.64062 0.5,-2.20313 -0.09375,-1.85937 0.203125,-2.17188 0.703125,-4.0625 0.390625,-4.35937 0.4375,-3.75 0.828125,-1.89063 0.203125,-2.17187 0.125,-3.73438 0.515625,-2.20312 0.765625,-3.125 0.578125,-0.95313 0.75,-3.45312 3.046875,-1.09375 2.171875,-0.10938 3.71875,0.125 2.171875,0.20313 4.921875,-0.875 2.46875,-0.125 6.828125,-0.0312 6.15625,-0.625 7.734375,-0.40625 3.40625,0.14062 1.84375,-0.40625 4.953125,-0.25 2.484375,0.1875 2.796875,0.17188 4.671875,0.39062 2.171875,-0.10937 2.51563,0.79687 4.375,1.01563 0.625,-0.0312 1.89062,0.53125 5.34375,1.28125 1.57813,0.82812 1.26562,0.5625 3.1875,1.70313 2.25,1.4375 1.9375,1.4375 4.9375,5.9375 2.65625,3.59375 1.3125,1.48437 1.70312,2.70313 1.46875,4.26562 2.09375,4.54688 1.34375,2.09375 1.1875,5.20312 0.10938,2.17188 1.75,4.25 -0.1875,2.1875 0.92187,6.14062 0.51563,4.01563 -0.82813,1.90625 1.14063,4.26562 0.40625,1.84375 -0.20313,2.17188 0.73438,2.14062 -0.20313,2.1875 0.0937,1.85938 -0.67187,4.98437 0.10937,2.15625 -0.34375,5.28125 -0.20312,2.1875 0.4375,8.65625 -1.28125,5.01562 0.10937,2.17188 -0.9375,5.95312 -0.39062,4.65625 -0.26563,7.14063 -0.48437,2.5 -0.8125,2.515625 -0.14063,3.109375 -1.51562,6.578125 -0.10938,4.046875 -0.4375,3.75 -0.8125,2.1875 -1.96875,4.140625 -0.5,1.890625 -0.14062,3.421875 -1.65625,4.09375 -0.21875,1.875 -1.01563,4.40625 -1.95312,4.453125 -1.85938,6.28125 -1.39062,3.171875 -2.32812,2.609375 -0.21875,1.859375 -1.4375,2.234375 -1.4375,1.9375 -1.98438,3.828125 -4.0625,5.46875 -4.14062,3.625 -2.67188,2.609375 -1.79687,1.328125 -3.92188,2.0625 -3.34375,1.09375 -2.984375,2.3125 -4.28125,1.46875 -3.046875,0.765625 -4.921875,0.875 -3.34375,1.421875 L 71.40625,-3.625 69.265625,-3.203125 67.71875,-3.125 Z m -3.375,-42 9.265625,-0.46875 3.046875,-1.0625 2.40625,-1.359375 3.3125,-2.046875 1.484375,-1.3125 2.34375,-2.609375 2.046875,-2.578125 0.828125,-1.90625 1.109375,-2.21875 1.09375,-3.15625 1.390625,-3.171875 1.34375,-4.109375 1.5625,-5.953125 0.75,-3.453125 0.71875,-4.359375 1.015625,-4.09375 0.21875,-1.875 0.53125,-1.578125 0.53125,-1.890625 0.71875,-3.734375 0.203125,-2.1875 0.421875,-4.062505 0.390625,-4.34375 0.390625,-4.67187 0.203125,-2.1875 0.48438,-2.5 1.32812,-4.40625 -0.21875,-4.32813 0.60938,-6.53124 0.21875,-1.875 0.26562,-6.53125 -0.64062,-6.46875 -0.14063,-8.98438 -1.03125,-8.3125 -0.4375,-2.46875 -2.125,-5.15625 -2.375,-3.90625 -1.9375,-1.45312 -1.59375,-1.17188 -5.328125,-1.26562 -4.984375,-0.35938 -4.03125,-0.10937 -2.765625,0.45312 -0.8125,2.5 -0.8125,2.21875 0.09375,1.85938 -0.515625,2.20312 -0.6875,4.70313 -1.015625,4.375 -0.421875,4.04687 -0.390625,4.35938 -0.265625,6.84375 -0.21875,1.875 -0.515625,2.1875 0.109375,2.15625 -0.171875,2.48437 -0.828125,1.90625 0.09375,1.85938 -0.703125,4.375 -0.375,4.96874 0.109375,2.17188 -0.703125,4.375 -0.53125,1.875 -0.703125,4.39062 0.09375,1.85938 -0.71875,4.375 -0.515625,2.1875 0.40625,1.82812 -0.5,2.20313 -0.84375,8.09375 0.203125,4.03125 -0.203125,1.875 -1.296875,4.40625 0.09375,1.84375 -0.703125,4.6875 -0.953125,5.640625 -0.203125,2.15625 -1.015625,4.40625 -0.390625,4.671875 -0.07813,4.640625 -0.65625,5.3125 -0.484375,2.8125 z m 0,0"
               id="path46" />
          </g>
        </g>
      </g>
    </g>
  </g>
  <g
     transform="translate(124.70669,48.469847)"
     id="g56">
    <g
       clip-path="url(#b106edc69d)"
       id="g55">
      <g
         fill="#bb0e00"
         fill-opacity="1"
         id="g54">
        <g
           transform="translate(15.812508,299.01931)"
           id="g53">
          <g
             id="g52">
            <path
               d="m 66.40625,-2.75 -7.203125,0.046875 -4.09375,-0.09375 -4.046875,0.515625 -4.734375,-0.390625 -3.75,0.5 -2.5,-0.171875 -2.828125,0.140625 -4.421875,-0.40625 -1.890625,-0.21875 -2.5,0.125 -2.171875,0.421875 -9.390625,0.484375 -4.421875,-0.40625 -2.546875,-0.5 -0.375,-7.203125 0.171875,-2.84375 1.390625,-3.828125 0.40625,-4.40625 0.21875,-1.90625 0.703125,-4.4375 0.46875,-3.15625 0.5,-2.53125 -0.125,-2.515625 0.40625,-4.40625 0.1875,-2.53125 0.453125,-3.46875 1.125,-2.5625 0.453125,-3.171875 -0.125,-2.515625 0.71875,-4.421875 0.484375,-2.53125 0.109375,-4.09375 0.21875,-1.890625 1.15625,-2.25 -0.34375,-6.890625 L 18.8125,-80.6875 19,-83.21875 l 0.71875,-4.4375 0.203125,-2.203125 0.40625,-4.09375 0.53125,-2.25 0.75,-3.796875 0.21875,-1.90625 1.0625,-3.8125 -0.328125,-6.26563 0.515625,-2.21875 0.53125,-1.90625 0.71875,-4.4375 0.53125,-1.90625 1.109375,-8.84374 0.828125,-2.25 0.515625,-2.21875 0.203125,-2.21875 -0.09375,-1.875 0.21875,-2.1875 0.421875,-3.79688 0.203125,-2.21875 0.75,-3.8125 -0.09375,-1.85937 0.4375,-3.79688 1.046875,-3.82812 -0.21875,-4.375 0.1875,-2.51563 0.3125,-6.625 0.421875,-3.76562 1.28125,-5.73438 0.5,-2.23437 -0.09375,-1.875 L 33,-190.6875 l 0.71875,-4.125 0.421875,-4.42187 0.4375,-3.78125 0.84375,-1.92188 0.203125,-2.20312 0.125,-3.78125 0.5,-2.21875 0.78125,-3.17188 0.59375,-0.98437 0.765625,-3.48438 3.078125,-1.10937 2.1875,-0.10938 3.78125,0.10938 2.203125,0.21875 4.984375,-0.89063 2.5,-0.125 6.90625,-0.0312 6.25,-0.64062 7.828125,-0.39063 3.453125,0.125 1.875,-0.40625 5.015625,-0.25 2.515625,0.1875 2.828125,0.1875 4.734375,0.375 2.1875,-0.10937 2.54688,0.8125 4.45312,1.03125 0.625,-0.0312 1.90625,0.53125 5.39063,1.29687 1.625,0.85938 1.28125,0.5625 3.23437,1.70312 2.28125,1.46875 1.96875,1.46875 5,6.03125 2.6875,3.60938 1.32812,1.51562 1.71875,2.73438 1.48438,4.32812 2.125,4.59375 1.34375,2.14063 1.20312,5.28125 0.125,2.17187 1.78125,4.3125 -0.20312,2.21875 0.9375,6.21875 0.53125,4.0625 -0.84375,1.92188 1.15625,4.34375 0.42187,1.85937 -0.21875,2.20313 0.75,2.17187 -0.20312,2.20313 0.10937,1.89062 -0.70312,5.04688 0.10937,2.1875 -0.35937,5.35937 -0.20313,2.20313 0.45313,8.78124 -1.3125,5.07813 0.10937,2.1875 -0.92187,6.01562 -0.40625,4.73438 -0.26563,7.234375 -0.48437,2.53125 -0.8125,2.546875 -0.15625,3.15625 -1.5625,6.65625 -0.0937,4.09375 -0.4375,3.796875 -0.82813,2.234375 -1.98437,4.1875 -0.54688,1.921875 -0.125,3.453125 -1.65625,4.15625 -0.21875,1.90625 -1.03125,4.453125 -1.98437,4.5 -1.85938,6.359375 -1.42187,3.21875 -2.375,2.625 -0.21875,1.890625 -1.45312,2.265625 -1.45313,1.984375 -2,3.859375 -4.125,5.546875 -4.20312,3.65625 -2.70313,2.65625 -1.8125,1.34375 -3.96875,2.109375 -3.39062,1.09375 L 97.828125,-8.75 93.5,-7.28125 l -3.09375,0.8125 -4.96875,0.875 -3.390625,1.421875 -9.703125,0.5 -2.1875,0.421875 -1.5625,0.078125 z M 63,-45.28125 72.390625,-45.75 l 3.09375,-1.09375 2.421875,-1.390625 3.359375,-2.046875 1.5,-1.328125 2.390625,-2.640625 2.078125,-2.609375 0.828125,-1.921875 1.140625,-2.265625 1.078125,-3.203125 1.421875,-3.21875 1.359375,-4.125 1.578125,-6.0625 0.765625,-3.5 0.71875,-4.40625 1.046875,-4.140625 0.21875,-1.90625 0.53125,-1.59375 0.53125,-1.921875 0.75,-3.78125 0.203125,-2.21875 0.421875,-4.10938 0.406255,-4.40625 0.375,-4.73437 0.20312,-2.20313 0.5,-2.54687 1.35938,-4.46875 -0.21875,-4.39063 0.59375,-6.60937 0.21875,-1.89062 0.29687,-6.625 -0.65625,-6.54688 -0.14062,-9.09375 -1.0625,-8.4375 -0.4375,-2.48437 -2.156255,-5.21875 -2.390625,-3.96875 -1.953125,-1.45313 -1.640625,-1.17187 -5.40625,-1.3125 -5.046875,-0.375 -4.078125,-0.0937 -2.8125,0.45312 -0.8125,2.5625 -0.8125,2.21875 0.09375,1.89063 -0.515625,2.21875 -0.703125,4.75 -1.046875,4.4375 -0.40625,4.10937 -0.40625,4.42188 -0.28125,6.90625 -0.203125,1.90625 -0.5,2.21875 0.109375,2.20312 -0.1875,2.5 -0.84375,1.9375 0.09375,1.875 -0.734375,4.45313 -0.359375,5.03124 0.109375,2.20313 -0.71875,4.4375 -0.53125,1.90625 -0.71875,4.42187 0.09375,1.875 -0.71875,4.4375 -0.515625,2.21875 0.40625,1.85938 -0.515625,2.23437 -0.828125,8.187505 0.203125,4.078125 -0.21875,1.90625 -1.34375,4.46875 0.09375,1.859375 -0.6875,4.75 -0.96875,5.703125 -0.203125,2.203125 -1.03125,4.453125 -0.375,4.734375 -0.07813,4.703125 -0.6875,5.375 -0.484375,2.859375 z m 0,0"
               id="path51" />
          </g>
        </g>
      </g>
    </g>
  </g>
  <g
     fill="#bb0e00"
     fill-opacity="1"
     id="g59"
     transform="translate(-116.29331,-222.53015)">
    <g
       transform="translate(405.16968,457.3679)"
       id="g58">
      <g
         id="g57">
        <path
           d="m 20.75,-0.9375 h -2.6875 l -3.65625,0.1875 -1,-0.09375 -7.484375,0.390625 -1.265625,-0.21875 -0.515625,-1.25 0.375,-1.296875 0.21875,-1.265625 0.171875,-2.125 0.15625,-2.28125 0.4375,-2.15625 0.03125,-2.265625 0.359375,-1.15625 -0.0625,-1.265625 0.234375,-1 L 6,-17.71875 l 0.21875,-1.140625 0.09375,-0.984375 0.046875,-2 0.1875,-1.859375 0.515625,-1.15625 0.15625,-2.28125 -0.046875,-0.984375 0.21875,-1.140625 0.1875,-1.84375 -0.03125,-0.703125 0.46875,-1.71875 -0.1875,-0.84375 0.328125,-1.859375 0.375,-1.015625 0.109375,-1 0.3125,-2.140625 0.21875,-1 L 9.578125,-44.375 9.46875,-46.484375 9.9375,-48.5 l 0.171875,-2.140625 0.359375,-1.015625 0.09375,-1.109375 0.07813,-1.015625 -0.04687,-0.984375 0.53125,-0.875 0.625,-4.28125 0.359375,-1.15625 0.234375,-1 -0.1875,-0.84375 0.328125,-1.984375 0.453125,-2.140625 -0.0625,-3.96875 0.375,-1.015625 -0.01563,-2.984375 0.51562,-0.859375 0.21875,-1.140625 0.07813,-1 -0.171875,-0.84375 0.07813,-0.984375 0.46875,-1.875 0.1875,-2 0.375,-0.859375 -0.04687,-0.984375 0.375,-1.015625 -0.1875,-0.828125 0.234375,-1 0.04687,-1.859375 0.234375,-0.859375 0.09375,-0.84375 0.04687,-1.859375 0.109375,-0.84375 -0.34375,-0.96875 0.34375,-1.734375 0.375,-0.859375 0.09375,-0.84375 1.09375,-0.90625 2.390625,-0.125005 0.859375,-0.1875 0.984375,0.0937 1.6875,-0.23437 0.984375,-0.0469 1.125,0.0781 1.421875,-0.0781 3.109375,-0.29687 10.5625,-0.6875 3.265625,-0.0312 1.140625,0.0781 4.078125,-0.34375 3.109375,-0.17187 1.265625,-0.20313 1.421875,0.0625 1.265625,0.0781 0.765625,0.95312 -0.34375,1.562505 0.03125,0.84375 -0.09375,3.546875 0.04687,0.859375 -0.375,1.015625 -0.07813,0.984375 -0.109375,0.859375 -0.3125,2.125 0.0625,1.140625 -0.453125,2 -0.09375,0.859375 -0.328125,1.859375 -1.421875,0.203125 -5.921875,0.3125 -1.671875,0.234375 -9.1875,0.46875 -3.390625,0.328125 -0.328125,1.71875 -0.09375,0.984375 0.109375,1.984375 -0.390625,0.859375 0.0625,1.140625 -0.28125,2.703125 -0.171875,1.984375 -0.328125,2.015625 -0.21875,0.984375 0.1875,1.140625 -0.34375,1.40625 -0.171875,2.5625 2.546875,-0.125 4.953125,-0.125 2.671875,-0.40625 3.671875,-0.203125 1.140625,0.234375 0.921875,1.078125 -0.203125,1.71875 0.0625,1.125 -0.203125,1.578125 -0.328125,1.984375 -0.234375,1.015625 -0.3125,2.109375 0.04687,1 -0.359375,1.15625 -0.171875,2 -0.3125,2.28125 L 45,-43.953125 l -0.265625,0.296875 -1.421875,0.07813 -2.125,0.25 -1.265625,0.0625 -3.5,0.328125 L 34,-42.953125 32.453125,-42.875 30.625,-42.640625 29.34375,-42.578125 28.859375,-41 l -0.328125,1.859375 -0.359375,3.984375 -0.34375,1.4375 -0.21875,1.296875 -0.0625,1.40625 -0.234375,1 -0.28125,2.5625 -0.375,3.703125 0.0625,1.125 0.578125,0.546875 1.984375,0.171875 8.34375,-0.4375 1.984375,0.04687 3.109375,-0.03125 3.953125,-0.34375 1,0.375 -0.07813,1.140625 -0.109375,0.578125 -0.203125,1.5625 -0.07813,1.125 -0.40625,3.140625 0.09375,1.84375 -0.21875,1 -0.25,0.859375 -0.07813,0.984375 -0.328125,2.140625 -0.01563,2.40625 -0.21875,1.28125 -0.34375,1.59375 -13.40625,0.6875 -2.25,0.265625 -1.84375,-0.046875 -0.828125,0.1875 -2.96875,0.15625 -2.265625,0.25 z m 0,0"
           id="path56" />
      </g>
    </g>
  </g>
  <g
     fill="#bb0e00"
     fill-opacity="1"
     id="g62"
     transform="translate(-116.29331,-222.53015)">
    <g
       transform="translate(447.23487,455.18053)"
       id="g61">
      <g
         id="g60">
        <path
           d="M 8.1875,-0.28125 6.765625,-0.359375 5.078125,-0.546875 4.4375,-1.9375 4.359375,-3.484375 l 0.5,-1.15625 L 4.625,-6.59375 l 0.09375,-0.859375 0.09375,-1 0.203125,-1.5625 L 5.5,-11.1875 l 0.09375,-0.859375 0.09375,-0.984375 0.046875,-1.859375 0.078125,-1.125 0.453125,-2 0.515625,-1.4375 -0.078125,-1.28125 0.25,-0.859375 0.03125,-1.984375 L 7.34375,-24.875 7.28125,-26.015625 7.515625,-26.875 7.46875,-27.859375 7.9375,-29.5625 l -0.09375,-1.96875 0.1875,-1.859375 0.59375,-2.03125 0.3125,-2.265625 -0.1875,-1 0.171875,-2.109375 0.375,-1.015625 -0.109375,-1.96875 0.359375,-4 0.46875,-1.859375 -0.046875,-1 0.3125,-1.96875 0.04687,-1.859375 0.484375,-1.875 0.46875,-1.703125 0.234375,-1 0.328125,-1.734375 -0.07813,-1.703125 0.171875,-1.96875 0.375,-1.015625 0.171875,-1.984375 0.234375,-1.015625 0.1875,-1.84375 -0.1875,-0.828125 0.09375,-1.015625 -0.0625,-0.984375 0.109375,-0.984375 0.578125,-2.296875 -0.0625,-0.984375 0.390625,-0.875 0.03125,-1.984375 0.328125,-1.859375 0.234375,-0.859375 0.07813,-1.140625 0.04687,-1.84375 0.0625,-1.546875 0.53125,-1.015625 -0.0625,-1.140625 0.4375,-2.5625 0.171875,-1.859375 0.25,-0.71875 -0.234375,-1.703125 0.09375,-0.984375 0.1875,-1.703125 L 17.59375,-100 l 6.890625,-0.64063 5.109375,-0.125 3.671875,-0.0469 16.5,-0.85938 2.28125,0.0312 1.703125,-0.0937 1.84375,0.46875 0.484375,1.10938 -0.21875,1 0.07813,1.5625 -0.1875,1.828125 0.03125,0.703125 -0.296875,2.4375 -0.328125,1.859375 -0.09375,0.859375 0.04687,0.96875 -0.421875,2.578125 -0.265625,2.984375 -1.25,0.765625 -1.265625,-0.07813 -2.25,0.421875 -2.6875,-0.15625 -2,-0.03125 -3.65625,0.328125 -5.78125,0.4375 -1.40625,0.07813 -0.21875,1.15625 -0.0625,1.546875 -0.09375,1.015625 -0.328125,2.109375 -0.3125,2 0.03125,0.703125 -0.390625,3.421875 -0.5,1.171875 0.0625,1.125 -0.234375,1.015625 -0.09375,0.859375 0.04687,0.96875 -0.1875,1.703125 -0.34375,1.4375 1.546875,0.0625 6.21875,-0.1875 1.6875,-0.234375 1.96875,-0.234375 1.5625,-0.07813 1.96875,0.03125 0.515625,1.546875 -0.07813,1.125 -0.375,1.15625 0.0625,1.140625 -0.46875,2 0.04687,0.703125 -0.34375,1.703125 -0.09375,0.859375 -0.09375,1 -0.328125,1.859375 0.09375,1.6875 -0.46875,1.875 -0.3125,1.984375 -0.78125,1.734375 -1.40625,0.07813 -1.5625,-0.0625 -5.0625,0.265625 -3.234375,0.453125 -3.421875,-0.109375 -0.3125,2.296875 -0.203125,1.421875 -0.1875,1.84375 -0.3125,2 -0.109375,0.71875 -0.484375,1.578125 0.1875,0.84375 -0.328125,1.84375 -0.3125,2.15625 -0.328125,1.703125 -0.46875,1.875 0.1875,0.96875 L 26.25,-20.75 l -0.04687,1.984375 0.04687,0.84375 -0.171875,1.984375 -0.203125,1.71875 -0.07813,0.984375 -0.765625,1.75 -0.109375,0.984375 0.04687,0.84375 -0.07813,1.015625 0.1875,0.96875 -0.34375,1.703125 -0.1875,1.71875 -0.46875,1.875 -1.34375,1.046875 -1.015625,-0.078125 -0.96875,0.1875 -3.390625,0.453125 -2.8125,0.015625 -0.84375,0.171875 z m 0,0"
           id="path59" />
      </g>
    </g>
  </g>
  <g
     fill="#bb0e00"
     fill-opacity="1"
     id="g65"
     transform="translate(-116.29331,-222.53015)">
    <g
       transform="translate(487.60614,453.08125)"
       id="g64">
      <g
         id="g63">
        <path
           d="m 20.75,-0.9375 h -2.6875 l -3.65625,0.1875 -1,-0.09375 -7.484375,0.390625 -1.265625,-0.21875 -0.515625,-1.25 0.375,-1.296875 0.21875,-1.265625 0.171875,-2.125 0.15625,-2.28125 0.4375,-2.15625 0.03125,-2.265625 0.359375,-1.15625 -0.0625,-1.265625 0.234375,-1 L 6,-17.71875 l 0.21875,-1.140625 0.09375,-0.984375 0.046875,-2 0.1875,-1.859375 0.515625,-1.15625 0.15625,-2.28125 -0.046875,-0.984375 0.21875,-1.140625 0.1875,-1.84375 -0.03125,-0.703125 0.46875,-1.71875 -0.1875,-0.84375 0.328125,-1.859375 0.375,-1.015625 0.109375,-1 0.3125,-2.140625 0.21875,-1 L 9.578125,-44.375 9.46875,-46.484375 9.9375,-48.5 l 0.171875,-2.140625 0.359375,-1.015625 0.09375,-1.109375 0.07813,-1.015625 -0.04687,-0.984375 0.53125,-0.875 0.625,-4.28125 0.359375,-1.15625 0.234375,-1 -0.1875,-0.84375 0.328125,-1.984375 0.453125,-2.140625 -0.0625,-3.96875 0.375,-1.015625 -0.01563,-2.984375 0.51562,-0.859375 0.21875,-1.140625 0.07813,-1 -0.171875,-0.84375 0.07813,-0.984375 0.46875,-1.875 0.1875,-2 0.375,-0.859375 -0.04687,-0.984375 0.375,-1.015625 -0.1875,-0.828125 0.234375,-1 0.04687,-1.859375 0.234375,-0.859375 0.09375,-0.84375 0.04687,-1.859375 0.109375,-0.84375 -0.34375,-0.96875 0.34375,-1.734375 0.375,-0.859375 0.09375,-0.84375 1.09375,-0.90625 2.390625,-0.125005 0.859375,-0.1875 0.984375,0.0937 1.6875,-0.23437 0.984375,-0.0469 1.125,0.0781 1.421875,-0.0781 3.109375,-0.29687 10.5625,-0.6875 3.265625,-0.0312 1.140625,0.0781 4.078125,-0.34375 3.109375,-0.17187 1.265625,-0.20313 1.421875,0.0625 1.265625,0.0781 0.765625,0.95312 -0.34375,1.562505 0.03125,0.84375 -0.09375,3.546875 0.04687,0.859375 -0.375,1.015625 -0.07813,0.984375 -0.109375,0.859375 -0.3125,2.125 0.0625,1.140625 -0.453125,2 -0.09375,0.859375 -0.328125,1.859375 -1.421875,0.203125 -5.921875,0.3125 -1.671875,0.234375 -9.1875,0.46875 -3.390625,0.328125 -0.328125,1.71875 -0.09375,0.984375 0.109375,1.984375 -0.390625,0.859375 0.0625,1.140625 -0.28125,2.703125 -0.171875,1.984375 -0.328125,2.015625 -0.21875,0.984375 0.1875,1.140625 -0.34375,1.40625 -0.171875,2.5625 2.546875,-0.125 4.953125,-0.125 2.671875,-0.40625 3.671875,-0.203125 1.140625,0.234375 0.921875,1.078125 -0.203125,1.71875 0.0625,1.125 -0.203125,1.578125 -0.328125,1.984375 -0.234375,1.015625 -0.3125,2.109375 0.04687,1 -0.359375,1.15625 -0.171875,2 -0.3125,2.28125 L 45,-43.953125 l -0.265625,0.296875 -1.421875,0.07813 -2.125,0.25 -1.265625,0.0625 -3.5,0.328125 L 34,-42.953125 32.453125,-42.875 30.625,-42.640625 29.34375,-42.578125 28.859375,-41 l -0.328125,1.859375 -0.359375,3.984375 -0.34375,1.4375 -0.21875,1.296875 -0.0625,1.40625 -0.234375,1 -0.28125,2.5625 -0.375,3.703125 0.0625,1.125 0.578125,0.546875 1.984375,0.171875 8.34375,-0.4375 1.984375,0.04687 3.109375,-0.03125 3.953125,-0.34375 1,0.375 -0.07813,1.140625 -0.109375,0.578125 -0.203125,1.5625 -0.07813,1.125 -0.40625,3.140625 0.09375,1.84375 -0.21875,1 -0.25,0.859375 -0.07813,0.984375 -0.328125,2.140625 -0.01563,2.40625 -0.21875,1.28125 -0.34375,1.59375 -13.40625,0.6875 -2.25,0.265625 -1.84375,-0.046875 -0.828125,0.1875 -2.96875,0.15625 -2.265625,0.25 z m 0,0"
           id="path62" />
      </g>
    </g>
  </g>
  <g
     fill="#bb0e00"
     fill-opacity="1"
     id="g68"
     transform="translate(-116.29331,-222.53015)">
    <g
       transform="translate(529.67133,450.89388)"
       id="g67">
      <g
         id="g66">
        <path
           d="M 7.203125,-0.09375 5.09375,-0.265625 4.28125,-1.9375 l 0.25,-1.140625 -0.125,-2.265625 0.171875,-2.234375 0.453125,-2.015625 0.09375,-1 0.296875,-2 0.25,-0.71875 0.3125,-2.015625 0.21875,-1.265625 L 6.5,-18.875 6.453125,-19.859375 6.6875,-21.015625 6.59375,-22.84375 7.109375,-23.875 7.15625,-25.5625 7.25,-26.578125 l 0.328125,-1.703125 0.109375,-0.875 -0.203125,-0.953125 0.1875,-1.84375 L 8.125,-34.25 8.3125,-35.96875 8.53125,-37.25 l 0.359375,-1.578125 0.1875,-1.703125 0.09375,-1 0.234375,-0.859375 0.046875,-1.84375 0.09375,-0.84375 -0.046875,-0.84375 0.625,-1.75 0.09375,-0.84375 0.07813,-1 0.04687,-1.984375 0.0625,-1.40625 0.640625,-1.734375 0.21875,-1.140625 0.203125,-1.4375 -0.09375,-1.96875 0.07813,-1.140625 0.359375,-1.15625 -0.0625,-1.140625 0.375,-1 -0.04687,-0.96875 0.21875,-1.015625 0.1875,-1.84375 0.34375,-1.578125 0.375,-1.296875 -0.09375,-1.703125 0.09375,-0.984375 0.234375,-0.859375 0.484375,-4 -0.04687,-0.984375 0.484375,-1.296875 0.21875,-1.28125 0.04687,-1.84375 0.09375,-1 0.09375,-0.859375 0.09375,-0.984375 0.25,-0.875 0.09375,-0.984375 0.171875,-1.859375 0.203125,-1.703125 0.328125,-1.859375 -0.0625,-1.125 0.328125,-1.859375 0.234375,-0.859375 0.390625,-0.734375 0.78125,-1.59375 1.390625,-0.34375 1.96875,-0.250005 2.40625,0.0156 1.265625,-0.0625 1.828125,-0.23438 h 2.6875 l 1.6875,-0.23437 2.140625,0.0312 1.96875,-0.0937 1.5625,0.32812 0.90625,1.23438 0.203125,0.96875 0.625,1.390625 0.375,1.671875 0.234375,1.5625 0.671875,1.9375 0.734375,3.34375 0.53125,2.25 0.546875,2.375 0.53125,1.96875 0.71875,2.796875 0.34375,1.109375 0.1875,0.96875 0.390625,2.109375 0.53125,1.8125 0.03125,0.84375 0.515625,1.53125 0.04687,1 0.21875,1.53125 0.53125,2.109375 0.40625,2.375 0.546875,2.375 0.265625,2.25 0.390625,1.96875 0.34375,1.109375 0.625,3.796875 0.71875,3.21875 0.453125,3.09375 0.04687,0.984375 0.328125,0.96875 0.359375,1.671875 0.625,3.796875 0.59375,3.078125 0.421875,-0.01563 v -2.84375 l 0.09375,-3.40625 -0.09375,-1.96875 0.0625,-6.796875 0.265625,-2.984375 -0.25,-4.78125 0.328125,-2.015625 0.09375,-0.84375 0.09375,-1.015625 0.07813,-1.125 0.03125,-2 0.25,-0.859375 0.1875,-1.984375 L 52.625,-68.703125 53.09375,-70.5625 53,-72.25 53.0625,-73.96875 53,-74.953125 l 0.765625,-1.75 -0.203125,-0.96875 0.296875,-2.5625 -0.04687,-0.84375 0.328125,-1.859375 0.09375,-0.984375 0.25,-0.859375 0.171875,-2 0.09375,-1.140625 0.3125,-1.984375 0.234375,-1 0.359375,-1.171875 -0.0625,-1.265625 0.09375,-0.84375 0.296875,-2.28125 0.421875,-3 1.03125,-2.03125 0.546875,-0.45313 2.640625,-0.70312 2.984375,0.125 0.96875,-0.1875 1.421875,-0.0781 3.265625,-0.0312 1.390625,-0.0625 1.96875,-0.25 2.015625,0.32813 0.859375,0.375 0.203125,1.10937 0.0625,1.125 -0.328125,2.01563 0.203125,1.109375 -0.265625,3.140625 -0.171875,2 -0.6875,3.40625 -0.34375,1.578125 -0.28125,2.5625 -0.234375,1.15625 -0.265625,3 -0.4375,2.25 -0.1875,2.28125 -0.34375,1.3125 -0.234375,1.140625 -0.21875,1 0.09375,1.84375 -0.234375,1 -0.328125,4.25 -0.359375,1.296875 -0.04687,1.5625 -0.09375,1 -0.21875,1.140625 -0.34375,1.859375 -0.234375,1 -0.328125,1.859375 -0.171875,1.96875 -0.234375,1.15625 0.21875,1.265625 -0.25,0.875 -0.07813,0.984375 -0.234375,0.859375 -0.09375,1 -0.09375,0.859375 0.09375,1.828125 -0.375,0.875 -0.34375,1.984375 -0.21875,1.296875 -0.0625,1.265625 -0.109375,0.859375 -0.07813,1 L 67.75,-36.5 l 0.03125,0.84375 -0.453125,2.015625 -0.171875,1.984375 -0.21875,1.421875 -0.5,1.296875 -0.484375,1.71875 -0.0625,1.578125 -0.04687,1.828125 -0.1875,1.859375 -0.359375,1.15625 -0.453125,2 0.109375,2.265625 -0.609375,1.859375 0.04687,0.859375 -0.21875,1 -0.34375,1.84375 -0.46875,4.5625 -1.171875,1.765625 -1.359375,1.0625 -1.96875,0.234375 -1.546875,0.359375 -0.5625,0.03125 h -2.6875 l -0.984375,0.1875 -1.40625,-0.0625 -0.84375,0.1875 L 48,-2.5 46.15625,-2.546875 43.765625,-2.421875 42.5625,-3.34375 41.328125,-5.546875 40.515625,-7.5 40.34375,-8.171875 40.09375,-9.875 39.90625,-10.703125 39.484375,-13.65625 39.3125,-14.5 l -0.71875,-2.9375 -0.1875,-0.84375 -0.390625,-1.953125 -0.25,-2.109375 -0.5,-1.53125 -0.53125,-2.09375 -0.04687,-0.84375 -0.515625,-1.96875 -0.203125,-0.828125 -0.53125,-1.953125 -0.171875,-0.84375 -0.125,-2.125 L 34.4375,-37.328125 34.015625,-40 33.25,-43.90625 l -0.9375,-4.5 -0.640625,-3.921875 -1.109375,-5.03125 -1.125,-5.328125 -0.421875,0.03125 0.0625,3.953125 0.01563,2.84375 -0.0625,1.546875 -0.171875,2.40625 0.03125,3.546875 -0.625,6.828125 -0.28125,5.546875 -0.23438,0.859375 -0.328125,1.84375 0.34375,0.984375 -0.34375,1.71875 -0.203125,1 0.171875,0.96875 -0.07813,0.859375 -0.203125,2 -0.453125,2.140625 L 26.25,-20.75 l -0.1875,1.984375 -0.09375,0.859375 -0.234375,1 -0.34375,4.125 -0.328125,1.859375 -0.109375,0.984375 0.09375,1.84375 -0.234375,0.859375 -0.28125,2.5625 -0.484375,1.71875 -0.34375,1.4375 -1.53125,0.640625 z m 0,0"
           id="path65" />
      </g>
    </g>
  </g>
  <g
     fill="#bb0e00"
     fill-opacity="1"
     id="g71"
     transform="translate(-116.29331,-222.53015)">
    <g
       transform="translate(594.60457,447.51738)"
       id="g70">
      <g
         id="g69">
        <path
           d="M 28.046875,0.390625 24.640625,0.28125 23.65625,0.1875 22.234375,0.25 l -1.5625,-0.203125 -1.4375,-0.203125 -1,-0.234375 L 15.9375,-1.25 14.359375,-1.734375 12.875,-2.65625 11.140625,-3.703125 9.625,-5.46875 8.125,-7.0625 6.734375,-8.984375 5.625,-11.34375 5.296875,-12.453125 4.1875,-14.9375 4,-15.78125 3.46875,-17.734375 3.28125,-18.5625 l -0.40625,-2.25 -0.21875,-4.234375 0.015625,-2.421875 -0.1875,-0.96875 0.171875,-2.125 0.078125,-1.140625 0.25,-1.015625 L 3.28125,-35 l 1.90625,-1.078125 3.375,-0.46875 1.71875,0.0625 7.90625,-0.421875 1.828125,0.04687 1.25,1.921875 0.265625,5.21875 -0.09375,1 0.15625,2.96875 0.453125,3.09375 0.484375,1.390625 1.09375,2.0625 1.5,1.34375 1.84375,0.3125 1.265625,-0.0625 1.125,-0.34375 1.53125,-0.515625 0.671875,-0.71875 0.640625,-1.296875 0.5,-1.03125 0.484375,-1.71875 0.203125,-1.71875 0.0625,-1.421875 -0.04687,-1 -0.25,-1.953125 -0.109375,-2.25 -0.71875,-2.515625 -0.03125,-0.84375 -0.53125,-2.109375 -1.234375,-1.90625 -1.234375,-1.640625 -1.078125,-1.921875 -0.609375,-0.8125 -0.3125,-0.6875 -0.46875,-0.6875 -1.03125,-0.9375 -0.765625,-1.09375 -1.640625,-1.765625 -0.75,-0.671875 -0.609375,-0.8125 L 20.390625,-51.75 18.59375,-53.46875 17.234375,-55.25 15.71875,-56.734375 14.28125,-57.78125 13.5,-58.734375 l -0.90625,-1.375 -0.953125,-2.0625 -0.640625,-1.25 -0.75,-0.9375 -0.484375,-0.984375 -0.34375,-1.109375 -0.65625,-1.8125 -0.234375,-1.8125 -0.203125,-1.125 0.09375,-1 -0.21875,-4.078125 0.140625,-2.84375 0.375,-1.015625 L 8.75,-82.125 9.28125,-83.140625 9.625,-84.59375 9.6875,-86 l 0.75,-1.875 0.5,-1.15625 0.375,-1.015625 0.390625,-0.71875 1.0625,-1.328125 0.390625,-0.609375 0.765625,-1.4375 0.8125,-0.890625 1.609375,-1.515625 2.453125,-1.953125 2.21875,-0.96875 1.515625,-0.92188 2.640625,-0.70312 2.359375,-0.82813 4.375,-0.23437 3.546875,-0.0312 0.984375,-0.0625 1.28125,0.21875 2.125,0.0312 2.453125,0.57812 0.984375,0.0937 0.59375,0.39063 1.734375,0.75 1.03125,0.796875 1.15625,0.359375 1.609375,1.328125 0.453125,0.5625 1.5,1.46875 0.46875,0.6875 1.0625,1.5 0.609375,0.8125 0.359375,1.5625 0.484375,0.953125 1.015625,3.328125 0.171875,3.109375 0.28125,2.828125 -0.01563,2.40625 -0.359375,3.96875 -0.390625,3.140625 -1.671875,0.953125 -2.53125,0.265625 -7.90625,0.40625 -1.984375,-0.03125 -1.984375,0.109375 -1.171875,-0.953125 -0.234375,-1.8125 0.21875,-1.15625 0.203125,-4.390625 -0.171875,-3.25 -0.375,-1.6875 -0.46875,-0.8125 -1.328125,-1.21875 L 34.171875,-86 l -1.84375,-0.1875 -1.671875,0.640625 -1.515625,0.796875 -0.65625,1.03125 -0.375,1 -0.484375,1.4375 -0.09375,1.015625 -0.359375,1.421875 -0.03125,2 0.09375,1.828125 0.1875,0.96875 1.140625,2.640625 1.21875,1.90625 0.625,1.109375 1.09375,1.78125 1.65625,1.890625 1.953125,2.171875 0.609375,0.8125 0.75,0.65625 0.609375,1.125 0.609375,0.671875 0.875,0.515625 1.453125,1.0625 0.46875,0.828125 0.75,0.375 0.453125,0.6875 1.34375,1.359375 0.765625,1.203125 1.796875,1.625 1.09375,2.34375 1.375,1.484375 0.171875,0.703125 1.265625,2.765625 0.9375,1.78125 1,2.921875 0.203125,0.984375 0.1875,1.109375 0.203125,1 0.828125,2.375 0.328125,0.828125 -0.04687,1.96875 -0.09375,0.859375 0.1875,0.96875 -0.09375,1 0.21875,3.96875 -0.328125,1.984375 -0.09375,0.875 0.109375,2.09375 -0.46875,1.859375 -0.21875,1.140625 -0.21875,1.296875 -0.609375,2.015625 -1.125,2.46875 -0.8125,0.609375 -0.65625,1.453125 -0.671875,0.578125 -1.0625,1.34375 -0.671875,0.59375 -1.078125,1.046875 -1.375,0.921875 -1.21875,1.0625 -1.671875,0.515625 -0.828125,0.609375 -2.0625,0.8125 -1.125,0.1875 -1.796875,0.671875 -1,0.203125 -1.265625,-0.09375 -0.984375,0.203125 -1.5625,0.09375 -0.96875,0.1875 z m 0,0"
           id="path68" />
      </g>
    </g>
  </g>
  <g
     fill="#bb0e00"
     fill-opacity="1"
     id="g74"
     transform="translate(-116.29331,-222.53015)">
    <g
       transform="translate(642.31636,445.0364)"
       id="g73">
      <g
         id="g72">
        <path
           d="M 11.453125,-0.3125 9.3125,-0.34375 8.328125,-0.4375 l -10.3125,0.40625 -1.28125,-0.21875 -0.34375,-1.125 0.234375,-1 0.09375,-0.859375 0.75,-1.734375 1.046875,-1.875 1.1875,-4.328125 0.75,-1.734375 0.640625,-1.734375 1.359375,-3.453125 0.46875,-1.875 1.015625,-2.59375 0.234375,-0.875 0.640625,-1.015625 0.609375,-1.75 0.234375,-0.84375 0.09375,-1 0.390625,-0.859375 0.609375,-1.875 0.375,-1 0.875,-2.03125 0.234375,-1 0.21875,-1.296875 0.65625,-1.171875 0.75,-1.734375 0.234375,-1 0.734375,-2.015625 0.109375,-0.859375 0.375,-1 0.375,-0.890625 0.609375,-2 0.375,-0.875 0.921875,-4.015625 0.375,-1.125 0.875,-1.90625 0.578125,-2.4375 0.765625,-1.59375 0.390625,-0.875 0.328125,-1.859375 0.65625,-1.015625 0.328125,-1.84375 0.234375,-0.71875 0.75,-1.890625 0.328125,-2.015625 0.65625,-1.015625 0.515625,-0.875 0.984375,-3.03125 0.609375,-1.875 0.390625,-0.84375 0.765625,-1.3125 0.359375,-1.453125 0.359375,-1 1.140625,-2.609375 0.234375,-1 0.375,-0.890625 0.234375,-0.859375 0.234375,-0.984375 0.765625,-1.59375 0.53125,-0.875 0.234375,-0.71875 0.71875,-2.59375 0.890625,-1.890625 1.140625,-2.609375 0.375,-1.015625 0.375,-0.859375 0.484375,-1.578125 1,-0.1875 1.40625,-0.0781 h 2.671875 l 1.40625,-0.21875 2.265625,-0.10937 L 43,-101.3125 l 1.265625,-0.0625 1.015625,0.21875 1.265625,-0.20313 2.25,-0.10937 0.71875,0.23437 1.03125,0.65625 0.734375,6.031255 0.15625,3.125 0.328125,0.84375 0.140625,2.53125 0.40625,5.0625 0.09375,1.984375 0.234375,1.84375 0.4375,2.796875 0.09375,1.96875 0.25,2.109375 -0.07813,1 0.15625,3.109375 0.390625,1.96875 0.140625,2.8125 0.25,1.96875 -0.109375,0.859375 0.234375,1.8125 0.04687,0.859375 0.265625,2.25 0.359375,1.53125 0.28125,5.515625 0.234375,1.671875 0.203125,1.140625 0.21875,4.21875 0.46875,6.484375 0.0625,1 0.25,2.109375 -0.03125,2.109375 L 57,-27.875 l -0.07813,0.984375 0.546875,5.375 0.04687,0.84375 0.25,1.8125 0.203125,0.984375 0.109375,2.125 -0.04687,1.96875 0.203125,1.140625 0.0625,1.265625 0.3125,3.078125 0.140625,2.96875 c 0.113281,0.28125 0.179688,0.683594 0.203125,1.203125 0.03125,0.523438 -0.140625,0.886719 -0.515625,1.09375 -0.28125,0.105469 -0.542969,0.140625 -0.78125,0.109375 -0.230469,-0.039063 -0.484375,-0.050781 -0.765625,-0.03125 l -0.98437,0.1875 L 54.765625,-2.84375 52.796875,-2.75 49.703125,-2.4375 48.5625,-2.390625 46.875,-2.4375 45.875,-2.25 44.484375,-2.03125 42.625,-2.078125 40.5,-1.96875 l -0.5625,-0.390625 -0.359375,-1.40625 -0.265625,-2.53125 -0.21875,-1.40625 0.07813,-1.40625 -0.359375,-6.65625 -0.1875,-1.109375 -3.125,0.01563 -2.28125,-0.15625 -6.203125,0.171875 -3.8125,0.203125 -0.625,1.578125 -0.90625,1.90625 -0.234375,1 -0.359375,1.015625 -0.484375,1.71875 -1.265625,2.75 -0.75,2.171875 -0.34375,1.5625 -0.375,0.734375 -0.515625,1.015625 -0.8125,0.609375 -3.96875,0.0625 z m 21.53125,-35.234375 4.234375,-0.21875 0.796875,-0.734375 0.04687,-2 -0.203125,-1.125 0.07813,-1.140625 -0.1875,-3.65625 0.09375,-0.984375 -0.125,-2.40625 0.203125,-1.15625 -0.3125,-3.390625 -0.140625,-5.359375 -0.125,-5.09375 -0.3125,-3.21875 -1.078125,0.46875 -0.46875,1.84375 -0.59375,2.3125 -0.34375,1.4375 -0.609375,2.28125 -0.5,1.171875 -0.484375,1.4375 -0.09375,1.015625 -0.515625,0.984375 L 32,-51.78125 31.609375,-50.765625 31.25,-49.46875 l -0.671875,3.15625 -0.09375,0.984375 -0.59375,2.15625 -0.53125,1.03125 -0.578125,2.421875 -0.234375,1.015625 -0.203125,1.265625 -0.375,1.015625 1.03125,0.8125 1.140625,-0.0625 1.546875,0.0625 z m 0,0"
           id="path71" />
      </g>
    </g>
  </g>
</svg>
